<mxfile host="app.diagrams.net" modified="2024-06-16T21:18:35.387Z" agent="Mozilla/5.0 (Windows NT 10.0; Win64; x64) AppleWebKit/537.36 (KHTML, like Gecko) Chrome/126.0.0.0 Safari/537.36" version="24.5.4" etag="4f91whBF6sVe0sSGKd0w" type="device">
  <diagram id="I75eMCd8hRWC3v5V2O9e" name="Page-1">
    <mxGraphModel dx="3590" dy="-7490" grid="1" gridSize="10" guides="1" tooltips="1" connect="1" arrows="1" fold="1" page="0" pageScale="1" pageWidth="850" pageHeight="1100" background="none" math="0" shadow="0">
      <root>
        <mxCell id="0" />
        <mxCell id="1" parent="0" />
        <mxCell id="node37" value="&lt;p style=&quot;margin:0px;margin-top:4px;text-align:center;&quot;&gt;&lt;b&gt;ActionLog&lt;/b&gt;&lt;/p&gt;&lt;hr size=&quot;1&quot;/&gt;&lt;p style=&quot;margin:0 0 0 4px;line-height:1.6;&quot;&gt;- actionDetails: JsonNode&lt;br/&gt;- createdAt: ZonedDateTime&lt;br/&gt;- actionType: ActionType&lt;br/&gt;- id: Integer&lt;br/&gt;- userId: Integer&lt;/p&gt;&lt;hr size=&quot;1&quot;/&gt;&lt;p style=&quot;margin:0 0 0 4px;line-height:1.6;&quot;&gt;+ getCreatedAt(): ZonedDateTime&lt;br/&gt;+ setCreatedAt(): void&lt;br/&gt;+ getActionDetails(): JsonNode&lt;br/&gt;+ setActionDetails(JsonNode): void&lt;br/&gt;+ hashCode(): int&lt;br/&gt;+ equals(Object): boolean&lt;br/&gt;+ builder(): ActionLogBuilder&lt;br/&gt;+ getId(): Integer&lt;br/&gt;+ setActionType(ActionType): void&lt;br/&gt;# canEqual(Object): boolean&lt;br/&gt;+ getActionType(): ActionType&lt;br/&gt;+ setId(Integer): void&lt;br/&gt;+ setUserId(Integer): void&lt;br/&gt;+ getUserId(): Integer&lt;br/&gt;+ toString(): String&lt;br/&gt;+ setCreatedAt(ZonedDateTime): void&lt;/p&gt;" style="verticalAlign=top;align=left;overflow=fill;fontSize=14;fontFamily=Helvetica;html=1;rounded=0;shadow=0;comic=0;labelBackgroundColor=none;strokeWidth=1;" parent="1" vertex="1">
          <mxGeometry x="-270" y="8902" width="265" height="154" as="geometry" />
        </mxCell>
        <mxCell id="node32" value="&lt;p style=&quot;margin:0px;margin-top:4px;text-align:center;&quot;&gt;&lt;b&gt;ActionLogDTO&lt;/b&gt;&lt;/p&gt;&lt;hr size=&quot;1&quot;/&gt;&lt;p style=&quot;margin:0 0 0 4px;line-height:1.6;&quot;&gt;- actionId: Integer&lt;br/&gt;- createdAt: ZonedDateTime&lt;br/&gt;- actionType: ActionType&lt;br/&gt;- actionDetails: JsonNode&lt;br/&gt;- userId: Integer&lt;/p&gt;&lt;hr size=&quot;1&quot;/&gt;&lt;p style=&quot;margin:0 0 0 4px;line-height:1.6;&quot;&gt;+ setActionType(ActionType): void&lt;br/&gt;+ setActionId(Integer): void&lt;br/&gt;+ setCreatedAt(ZonedDateTime): void&lt;br/&gt;+ hashCode(): int&lt;br/&gt;+ setUserId(Integer): void&lt;br/&gt;+ setActionDetails(JsonNode): void&lt;br/&gt;+ getUserId(): Integer&lt;br/&gt;+ getActionId(): Integer&lt;br/&gt;# canEqual(Object): boolean&lt;br/&gt;+ equals(Object): boolean&lt;br/&gt;+ getCreatedAt(): ZonedDateTime&lt;br/&gt;+ toString(): String&lt;br/&gt;+ getActionDetails(): JsonNode&lt;br/&gt;+ builder(): ActionLogDTOBuilder&lt;br/&gt;+ getActionType(): ActionType&lt;/p&gt;" style="verticalAlign=top;align=left;overflow=fill;fontSize=14;fontFamily=Helvetica;html=1;rounded=0;shadow=0;comic=0;labelBackgroundColor=none;strokeWidth=1;" parent="1" vertex="1">
          <mxGeometry x="365" y="8938" width="255" height="154" as="geometry" />
        </mxCell>
        <mxCell id="node54" value="&lt;p style=&quot;margin:0px;margin-top:4px;text-align:center;&quot;&gt;&lt;i&gt;&amp;lt;&amp;lt;interface&amp;gt;&amp;gt;&lt;/i&gt;&lt;br/&gt;&lt;b&gt;ActionLogRepository&lt;/b&gt;&lt;/p&gt;&lt;hr size=&quot;1&quot;/&gt;&lt;p style=&quot;margin:0 0 0 4px;line-height:1.6;&quot;&gt;+ findAllByActionTypeIn(Collection&amp;lt;ActionType&amp;gt;, Pageable): Page&amp;lt;ActionLog&amp;gt;&lt;br/&gt;+ findActionLogByUserIdAndActionType(Integer, ActionType): Optional&amp;lt;List&amp;lt;ActionLog&amp;gt;&amp;gt;&lt;br/&gt;+ findAll(Pageable): Page&amp;lt;ActionLog&amp;gt;&lt;/p&gt;" style="verticalAlign=top;align=left;overflow=fill;fontSize=14;fontFamily=Helvetica;html=1;rounded=0;shadow=0;comic=0;labelBackgroundColor=none;strokeWidth=1;" parent="1" vertex="1">
          <mxGeometry x="-162" y="10739" width="601" height="139" as="geometry" />
        </mxCell>
        <mxCell id="node19" value="&lt;p style=&quot;margin:0px;margin-top:4px;text-align:center;&quot;&gt;&lt;i&gt;&amp;lt;&amp;lt;enumeration&amp;gt;&amp;gt;&lt;/i&gt;&lt;br/&gt;&lt;b&gt;ActionType&lt;/b&gt;&lt;/p&gt;&lt;hr size=&quot;1&quot;/&gt;&lt;p style=&quot;margin:0 0 0 4px;line-height:1.6;&quot;&gt;+ UPDATE_USER_ADD_PRODUCT: &lt;br/&gt;+ USER_ADD_PRODUCT: &lt;br/&gt;+ ADMIN_REMOVE_USER_BAN: &lt;br/&gt;+ ADMIN_BAN_USER: &lt;br/&gt;+ USER_REGISTER: &lt;br/&gt;+ ADMIN_DELETE_PRODUCT: &lt;/p&gt;&lt;hr size=&quot;1&quot;/&gt;&lt;p style=&quot;margin:0 0 0 4px;line-height:1.6;&quot;&gt;+ valueOf(String): ActionType&lt;br/&gt;+ values(): ActionType[]&lt;/p&gt;" style="verticalAlign=top;align=left;overflow=fill;fontSize=14;fontFamily=Helvetica;html=1;rounded=0;shadow=0;comic=0;labelBackgroundColor=none;strokeWidth=1;" parent="1" vertex="1">
          <mxGeometry x="-626" y="8902" width="242" height="181" as="geometry" />
        </mxCell>
        <mxCell id="node26" value="&lt;p style=&quot;margin:0px;margin-top:4px;text-align:center;&quot;&gt;&lt;b&gt;AddProductActionDTO&lt;/b&gt;&lt;/p&gt;&lt;hr size=&quot;1&quot;/&gt;&lt;p style=&quot;margin:0 0 0 4px;line-height:1.6;&quot;&gt;- productId: Integer&lt;br/&gt;- productTitle: String&lt;/p&gt;&lt;hr size=&quot;1&quot;/&gt;&lt;p style=&quot;margin:0 0 0 4px;line-height:1.6;&quot;&gt;+ getProductTitle(): String&lt;br/&gt;+ builder(): AddProductActionDTOBuilder&lt;br/&gt;+ setProductTitle(String): void&lt;br/&gt;+ getProductId(): Integer&lt;br/&gt;+ hashCode(): int&lt;br/&gt;+ equals(Object): boolean&lt;br/&gt;+ toString(): String&lt;br/&gt;# canEqual(Object): boolean&lt;br/&gt;+ setProductId(Integer): void&lt;/p&gt;" style="verticalAlign=top;align=left;overflow=fill;fontSize=14;fontFamily=Helvetica;html=1;rounded=0;shadow=0;comic=0;labelBackgroundColor=none;strokeWidth=1;" parent="1" vertex="1">
          <mxGeometry x="64" y="8938" width="232" height="88" as="geometry" />
        </mxCell>
        <mxCell id="node33" value="&lt;p style=&quot;margin:0px;margin-top:4px;text-align:center;&quot;&gt;&lt;b&gt;AdminBanUserActionDTO&lt;/b&gt;&lt;/p&gt;&lt;hr size=&quot;1&quot;/&gt;&lt;p style=&quot;margin:0 0 0 4px;line-height:1.6;&quot;&gt;- bannedUserId: Integer&lt;br/&gt;- banDurationInDays: Integer&lt;/p&gt;&lt;hr size=&quot;1&quot;/&gt;&lt;p style=&quot;margin:0 0 0 4px;line-height:1.6;&quot;&gt;+ hashCode(): int&lt;br/&gt;+ getBannedUserId(): Integer&lt;br/&gt;+ setBannedUserId(Integer): void&lt;br/&gt;+ toString(): String&lt;br/&gt;+ getBanDurationInDays(): Integer&lt;br/&gt;# canEqual(Object): boolean&lt;br/&gt;+ setBanDurationInDays(Integer): void&lt;br/&gt;+ equals(Object): boolean&lt;br/&gt;+ builder(): AdminBanUserActionDTOBuilder&lt;/p&gt;" style="verticalAlign=top;align=left;overflow=fill;fontSize=14;fontFamily=Helvetica;html=1;rounded=0;shadow=0;comic=0;labelBackgroundColor=none;strokeWidth=1;" parent="1" vertex="1">
          <mxGeometry x="-625" y="9342" width="265" height="88" as="geometry" />
        </mxCell>
        <mxCell id="node45" value="&lt;p style=&quot;margin:0px;margin-top:4px;text-align:center;&quot;&gt;&lt;b&gt;AdminDeleteProductDTO&lt;/b&gt;&lt;/p&gt;&lt;hr size=&quot;1&quot;/&gt;&lt;p style=&quot;margin:0 0 0 4px;line-height:1.6;&quot;&gt;- productTitle: String&lt;/p&gt;&lt;hr size=&quot;1&quot;/&gt;&lt;p style=&quot;margin:0 0 0 4px;line-height:1.6;&quot;&gt;+ builder(): AdminDeleteProductDTOBuilder&lt;br/&gt;+ toString(): String&lt;br/&gt;+ equals(Object): boolean&lt;br/&gt;+ getProductTitle(): String&lt;br/&gt;# canEqual(Object): boolean&lt;br/&gt;+ setProductTitle(String): void&lt;br/&gt;+ hashCode(): int&lt;/p&gt;" style="verticalAlign=top;align=left;overflow=fill;fontSize=14;fontFamily=Helvetica;html=1;rounded=0;shadow=0;comic=0;labelBackgroundColor=none;strokeWidth=1;" parent="1" vertex="1">
          <mxGeometry x="127" y="9390" width="257" height="61" as="geometry" />
        </mxCell>
        <mxCell id="node20" value="&lt;p style=&quot;margin:0px;margin-top:4px;text-align:center;&quot;&gt;&lt;b&gt;AdminRemoveUserBanDTO&lt;/b&gt;&lt;/p&gt;&lt;hr size=&quot;1&quot;/&gt;&lt;p style=&quot;margin:0 0 0 4px;line-height:1.6;&quot;&gt;- unbannedUserId: Integer&lt;/p&gt;&lt;hr size=&quot;1&quot;/&gt;&lt;p style=&quot;margin:0 0 0 4px;line-height:1.6;&quot;&gt;+ setUnbannedUserId(Integer): void&lt;br/&gt;+ toString(): String&lt;br/&gt;+ getUnbannedUserId(): Integer&lt;br/&gt;+ builder(): AdminRemoveUserBanDTOBuilder&lt;br/&gt;+ equals(Object): boolean&lt;br/&gt;# canEqual(Object): boolean&lt;br/&gt;+ hashCode(): int&lt;/p&gt;" style="verticalAlign=top;align=left;overflow=fill;fontSize=14;fontFamily=Helvetica;html=1;rounded=0;shadow=0;comic=0;labelBackgroundColor=none;strokeWidth=1;" parent="1" vertex="1">
          <mxGeometry x="524" y="9634" width="265" height="68" as="geometry" />
        </mxCell>
        <mxCell id="node4" value="&lt;p style=&quot;margin:0px;margin-top:4px;text-align:center;&quot;&gt;&lt;b&gt;AuditUserActionRequest&lt;/b&gt;&lt;/p&gt;&lt;hr size=&quot;1&quot;/&gt;&lt;p style=&quot;margin:0 0 0 4px;line-height:1.6;&quot;&gt;- updateAddProductAction: UpdateAddProductActionDTO&lt;br/&gt;- adminBanUserAction: AdminBanUserActionDTO&lt;br/&gt;- adminRemoveUserBan: AdminRemoveUserBanDTO&lt;br/&gt;- addProductAction: AddProductActionDTO&lt;br/&gt;- userId: Integer&lt;br/&gt;- adminDeleteProduct: AdminDeleteProductDTO&lt;br/&gt;- actionType: ActionType&lt;/p&gt;&lt;hr size=&quot;1&quot;/&gt;&lt;p style=&quot;margin:0 0 0 4px;line-height:1.6;&quot;&gt;+ setUserId(Integer): void&lt;br/&gt;+ setUpdateAddProductAction(UpdateAddProductActionDTO): void&lt;br/&gt;+ setAddProductAction(AddProductActionDTO): void&lt;br/&gt;+ setAdminBanUserAction(AdminBanUserActionDTO): void&lt;br/&gt;+ setAdminRemoveUserBan(AdminRemoveUserBanDTO): void&lt;br/&gt;+ setActionType(ActionType): void&lt;br/&gt;+ getAdminBanUserAction(): AdminBanUserActionDTO&lt;br/&gt;+ getUserId(): Integer&lt;br/&gt;+ getUpdateAddProductAction(): UpdateAddProductActionDTO&lt;br/&gt;+ hashCode(): int&lt;br/&gt;+ getAdminRemoveUserBan(): AdminRemoveUserBanDTO&lt;br/&gt;+ toString(): String&lt;br/&gt;+ setAdminDeleteProduct(AdminDeleteProductDTO): void&lt;br/&gt;+ getAddProductAction(): AddProductActionDTO&lt;br/&gt;+ builder(): AuditUserActionRequestBuilder&lt;br/&gt;# canEqual(Object): boolean&lt;br/&gt;+ getAdminDeleteProduct(): AdminDeleteProductDTO&lt;br/&gt;+ equals(Object): boolean&lt;br/&gt;+ getActionType(): ActionType&lt;/p&gt;" style="verticalAlign=top;align=left;overflow=fill;fontSize=14;fontFamily=Helvetica;html=1;rounded=0;shadow=0;comic=0;labelBackgroundColor=none;strokeWidth=1;" parent="1" vertex="1">
          <mxGeometry x="83" y="9727" width="441" height="204" as="geometry" />
        </mxCell>
        <mxCell id="node46" value="&lt;p style=&quot;margin:0px;margin-top:4px;text-align:center;&quot;&gt;&lt;b&gt;AuthConfig&lt;/b&gt;&lt;/p&gt;&lt;hr size=&quot;1&quot;/&gt;&lt;p style=&quot;margin:0 0 0 4px;line-height:1.6;&quot;&gt;- userRepository: UserRepository&lt;/p&gt;&lt;hr size=&quot;1&quot;/&gt;&lt;p style=&quot;margin:0 0 0 4px;line-height:1.6;&quot;&gt;+ userDetailsService(): UserDetailsService&lt;br/&gt;+ authenticationManager(AuthenticationConfiguration): AuthenticationManager&lt;br/&gt;+ passwordEncoder(): PasswordEncoder&lt;br/&gt;+ authenticationProvider(): AuthenticationProvider&lt;/p&gt;" style="verticalAlign=top;align=left;overflow=fill;fontSize=14;fontFamily=Helvetica;html=1;rounded=0;shadow=0;comic=0;labelBackgroundColor=none;strokeWidth=1;" parent="1" vertex="1">
          <mxGeometry x="524" y="11180" width="525" height="161" as="geometry" />
        </mxCell>
        <mxCell id="node7" value="&lt;p style=&quot;margin:0px;margin-top:4px;text-align:center;&quot;&gt;&lt;i&gt;&amp;lt;&amp;lt;enumeration&amp;gt;&amp;gt;&lt;/i&gt;&lt;br/&gt;&lt;b&gt;AuthProvider&lt;/b&gt;&lt;/p&gt;&lt;hr size=&quot;1&quot;/&gt;&lt;p style=&quot;margin:0 0 0 4px;line-height:1.6;&quot;&gt;+ LOCAL: &lt;br/&gt;+ OAUTH2: &lt;/p&gt;&lt;hr size=&quot;1&quot;/&gt;&lt;p style=&quot;margin:0 0 0 4px;line-height:1.6;&quot;&gt;+ values(): AuthProvider[]&lt;br/&gt;+ valueOf(String): AuthProvider&lt;/p&gt;" style="verticalAlign=top;align=left;overflow=fill;fontSize=14;fontFamily=Helvetica;html=1;rounded=0;shadow=0;comic=0;labelBackgroundColor=none;strokeWidth=1;" parent="1" vertex="1">
          <mxGeometry x="127" y="9200" width="170" height="103" as="geometry" />
        </mxCell>
        <mxCell id="node25" value="&lt;p style=&quot;margin:0px;margin-top:4px;text-align:center;&quot;&gt;&lt;i&gt;&amp;lt;&amp;lt;interface&amp;gt;&amp;gt;&lt;/i&gt;&lt;br/&gt;&lt;b&gt;AuthenticationService&lt;/b&gt;&lt;/p&gt;&lt;hr size=&quot;1&quot;/&gt;&lt;p style=&quot;margin:0 0 0 4px;line-height:1.6;&quot;&gt;+ register(RegisterRequest): RegisterResponse&lt;br/&gt;+ login(LoginRequest): LoginResponse&lt;br/&gt;+ oauth2login(Oauth2Request): Oauth2Response&lt;br/&gt;+ forgottenPasswordReset(ForgottenPasswordResetRequest): void&lt;/p&gt;" style="verticalAlign=top;align=left;overflow=fill;fontSize=14;fontFamily=Helvetica;html=1;rounded=0;shadow=0;comic=0;labelBackgroundColor=none;strokeWidth=1;" parent="1" vertex="1">
          <mxGeometry x="-297" y="10011" width="473" height="169" as="geometry" />
        </mxCell>
        <mxCell id="node36" value="&lt;p style=&quot;margin:0px;margin-top:4px;text-align:center;&quot;&gt;&lt;b&gt;AuthenticationServiceImpl&lt;/b&gt;&lt;/p&gt;&lt;hr size=&quot;1&quot;/&gt;&lt;p style=&quot;margin:0 0 0 4px;line-height:1.6;&quot;&gt;- jwtService: JwtService&lt;br/&gt;- log: Logger&lt;br/&gt;- exceptionFactory: ExceptionFactory&lt;br/&gt;- securityCodeService: SecurityCodeService&lt;br/&gt;- securityCodeRepository: SecurityCodeRepository&lt;br/&gt;- authenticationManager: AuthenticationManager&lt;br/&gt;- userRepository: UserRepository&lt;br/&gt;- passwordEncoder: PasswordEncoder&lt;/p&gt;&lt;hr size=&quot;1&quot;/&gt;&lt;p style=&quot;margin:0 0 0 4px;line-height:1.6;&quot;&gt;+ register(RegisterRequest): RegisterResponse&lt;br/&gt;+ forgottenPasswordReset(ForgottenPasswordResetRequest): void&lt;br/&gt;+ oauth2login(Oauth2Request): Oauth2Response&lt;br/&gt;- generateNewUsername(String, String): String&lt;br/&gt;+ login(LoginRequest): LoginResponse&lt;br/&gt;- findFirstMissing(List&amp;lt;Integer&amp;gt;): Integer&lt;/p&gt;" style="verticalAlign=top;align=left;overflow=fill;fontSize=14;fontFamily=Helvetica;html=1;rounded=0;shadow=0;comic=0;labelBackgroundColor=none;strokeWidth=1;" parent="1" vertex="1">
          <mxGeometry x="943" y="11911" width="451" height="377" as="geometry" />
        </mxCell>
        <mxCell id="node23" value="&lt;p style=&quot;margin:0px;margin-top:4px;text-align:center;&quot;&gt;&lt;i&gt;&amp;lt;&amp;lt;enumeration&amp;gt;&amp;gt;&lt;/i&gt;&lt;br/&gt;&lt;b&gt;EmailResetProcessPhase&lt;/b&gt;&lt;/p&gt;&lt;hr size=&quot;1&quot;/&gt;&lt;p style=&quot;margin:0 0 0 4px;line-height:1.6;&quot;&gt;+ VERIFY_DATA: &lt;br/&gt;+ FINALIZE: &lt;br/&gt;+ SEND_SECURITY_CODE: &lt;/p&gt;&lt;hr size=&quot;1&quot;/&gt;&lt;p style=&quot;margin:0 0 0 4px;line-height:1.6;&quot;&gt;+ values(): EmailResetProcessPhase[]&lt;br/&gt;+ valueOf(String): EmailResetProcessPhase&lt;/p&gt;" style="verticalAlign=top;align=left;overflow=fill;fontSize=14;fontFamily=Helvetica;html=1;rounded=0;shadow=0;comic=0;labelBackgroundColor=none;strokeWidth=1;" parent="1" vertex="1">
          <mxGeometry x="493" y="9364" width="260" height="136" as="geometry" />
        </mxCell>
        <mxCell id="node38" value="&lt;p style=&quot;margin:0px;margin-top:4px;text-align:center;&quot;&gt;&lt;b&gt;EmailResetRequest&lt;/b&gt;&lt;/p&gt;&lt;hr size=&quot;1&quot;/&gt;&lt;p style=&quot;margin:0 0 0 4px;line-height:1.6;&quot;&gt;- securityCode: String&lt;br/&gt;- password: String&lt;br/&gt;- newEmail: String&lt;br/&gt;- processPhase: EmailResetProcessPhase&lt;/p&gt;&lt;hr size=&quot;1&quot;/&gt;&lt;p style=&quot;margin:0 0 0 4px;line-height:1.6;&quot;&gt;+ setSecurityCode(String): void&lt;br/&gt;+ equals(Object): boolean&lt;br/&gt;+ getSecurityCode(): String&lt;br/&gt;+ setPassword(String): void&lt;br/&gt;+ getNewEmail(): String&lt;br/&gt;+ hashCode(): int&lt;br/&gt;+ toString(): String&lt;br/&gt;+ builder(): EmailResetRequestBuilder&lt;br/&gt;+ getPassword(): String&lt;br/&gt;+ getProcessPhase(): EmailResetProcessPhase&lt;br/&gt;+ setNewEmail(String): void&lt;br/&gt;# canEqual(Object): boolean&lt;/p&gt;" style="verticalAlign=top;align=left;overflow=fill;fontSize=14;fontFamily=Helvetica;html=1;rounded=0;shadow=0;comic=0;labelBackgroundColor=none;strokeWidth=1;" parent="1" vertex="1">
          <mxGeometry x="169" y="10230" width="329" height="141" as="geometry" />
        </mxCell>
        <mxCell id="node15" value="&lt;p style=&quot;margin:0px;margin-top:4px;text-align:center;&quot;&gt;&lt;i&gt;&amp;lt;&amp;lt;interface&amp;gt;&amp;gt;&lt;/i&gt;&lt;br/&gt;&lt;b&gt;EmailSenderService&lt;/b&gt;&lt;/p&gt;&lt;hr size=&quot;1&quot;/&gt;&lt;p style=&quot;margin:0 0 0 4px;line-height:1.6;&quot;&gt;+ sendSimpleEmail(String, String, String): void&lt;/p&gt;" style="verticalAlign=top;align=left;overflow=fill;fontSize=14;fontFamily=Helvetica;html=1;rounded=0;shadow=0;comic=0;labelBackgroundColor=none;strokeWidth=1;" parent="1" vertex="1">
          <mxGeometry x="1029" y="10483" width="323" height="79" as="geometry" />
        </mxCell>
        <mxCell id="node41" value="&lt;p style=&quot;margin:0px;margin-top:4px;text-align:center;&quot;&gt;&lt;b&gt;EmailSenderServiceImpl&lt;/b&gt;&lt;/p&gt;&lt;hr size=&quot;1&quot;/&gt;&lt;p style=&quot;margin:0 0 0 4px;line-height:1.6;&quot;&gt;- log: Logger&lt;br/&gt;- mailSender: JavaMailSender&lt;br/&gt;- swapItEmail: String&lt;/p&gt;&lt;hr size=&quot;1&quot;/&gt;&lt;p style=&quot;margin:0 0 0 4px;line-height:1.6;&quot;&gt;+ sendSimpleEmail(String, String, String): void&lt;/p&gt;" style="verticalAlign=top;align=left;overflow=fill;fontSize=14;fontFamily=Helvetica;html=1;rounded=0;shadow=0;comic=0;labelBackgroundColor=none;strokeWidth=1;" parent="1" vertex="1">
          <mxGeometry x="1043" y="10617" width="323" height="148" as="geometry" />
        </mxCell>
        <mxCell id="node2" value="&lt;p style=&quot;margin:0px;margin-top:4px;text-align:center;&quot;&gt;&lt;i&gt;&amp;lt;&amp;lt;enumeration&amp;gt;&amp;gt;&lt;/i&gt;&lt;br/&gt;&lt;b&gt;ForgottenPasswordResetProcessPhase&lt;/b&gt;&lt;/p&gt;&lt;hr size=&quot;1&quot;/&gt;&lt;p style=&quot;margin:0 0 0 4px;line-height:1.6;&quot;&gt;+ SEND_SECURITY_CODE: &lt;br/&gt;+ VERIFY_DATA: &lt;br/&gt;+ FINALIZE: &lt;/p&gt;&lt;hr size=&quot;1&quot;/&gt;&lt;p style=&quot;margin:0 0 0 4px;line-height:1.6;&quot;&gt;+ valueOf(String): ForgottenPasswordResetProcessPhase&lt;br/&gt;+ values(): ForgottenPasswordResetProcessPhase[]&lt;/p&gt;" style="verticalAlign=top;align=left;overflow=fill;fontSize=14;fontFamily=Helvetica;html=1;rounded=0;shadow=0;comic=0;labelBackgroundColor=none;strokeWidth=1;" parent="1" vertex="1">
          <mxGeometry x="976" y="9634" width="360" height="132" as="geometry" />
        </mxCell>
        <mxCell id="node51" value="&lt;p style=&quot;margin:0px;margin-top:4px;text-align:center;&quot;&gt;&lt;b&gt;ForgottenPasswordResetRequest&lt;/b&gt;&lt;/p&gt;&lt;hr size=&quot;1&quot;/&gt;&lt;p style=&quot;margin:0 0 0 4px;line-height:1.6;&quot;&gt;- email: String&lt;br/&gt;- securityCode: String&lt;br/&gt;- processPhase: ForgottenPasswordResetProcessPhase&lt;br/&gt;- newPassword: String&lt;/p&gt;&lt;hr size=&quot;1&quot;/&gt;&lt;p style=&quot;margin:0 0 0 4px;line-height:1.6;&quot;&gt;+ equals(Object): boolean&lt;br/&gt;+ hashCode(): int&lt;br/&gt;+ builder(): ForgottenPasswordResetRequestBuilder&lt;br/&gt;+ getEmail(): String&lt;br/&gt;+ getSecurityCode(): String&lt;br/&gt;# canEqual(Object): boolean&lt;br/&gt;+ setEmail(String): void&lt;br/&gt;+ setNewPassword(String): void&lt;br/&gt;+ setProcessPhase(ForgottenPasswordResetProcessPhase): void&lt;br/&gt;+ toString(): String&lt;br/&gt;+ getProcessPhase(): ForgottenPasswordResetProcessPhase&lt;br/&gt;+ setSecurityCode(String): void&lt;br/&gt;+ getNewPassword(): String&lt;/p&gt;" style="verticalAlign=top;align=left;overflow=fill;fontSize=14;fontFamily=Helvetica;html=1;rounded=0;shadow=0;comic=0;labelBackgroundColor=none;strokeWidth=1;" parent="1" vertex="1">
          <mxGeometry x="723" y="9153" width="401" height="142" as="geometry" />
        </mxCell>
        <mxCell id="node58" value="&lt;p style=&quot;margin:0px;margin-top:4px;text-align:center;&quot;&gt;&lt;b&gt;GetSpecificUsersDetailsRequest&lt;/b&gt;&lt;/p&gt;&lt;hr size=&quot;1&quot;/&gt;&lt;p style=&quot;margin:0 0 0 4px;line-height:1.6;&quot;&gt;~ requestedUserDetails: Map&amp;lt;Integer, List&amp;lt;UserBasicDetailType&amp;gt;&amp;gt;&lt;/p&gt;&lt;hr size=&quot;1&quot;/&gt;&lt;p style=&quot;margin:0 0 0 4px;line-height:1.6;&quot;&gt;# canEqual(Object): boolean&lt;br/&gt;+ toString(): String&lt;br/&gt;+ getRequestedUserDetails(): Map&amp;lt;Integer, List&amp;lt;UserBasicDetailType&amp;gt;&amp;gt;&lt;br/&gt;+ setRequestedUserDetails(Map&amp;lt;Integer, List&amp;lt;UserBasicDetailType&amp;gt;&amp;gt;): void&lt;br/&gt;+ builder(): GetSpecificUsersDetailsRequestBuilder&lt;br/&gt;+ equals(Object): boolean&lt;br/&gt;+ hashCode(): int&lt;/p&gt;" style="verticalAlign=top;align=left;overflow=fill;fontSize=14;fontFamily=Helvetica;html=1;rounded=0;shadow=0;comic=0;labelBackgroundColor=none;strokeWidth=1;" parent="1" vertex="1">
          <mxGeometry x="198" y="10103" width="497" height="60" as="geometry" />
        </mxCell>
        <mxCell id="node59" value="&lt;p style=&quot;margin:0px;margin-top:4px;text-align:center;&quot;&gt;&lt;b&gt;GetSpecificUsersDetailsResponse&lt;/b&gt;&lt;/p&gt;&lt;hr size=&quot;1&quot;/&gt;&lt;p style=&quot;margin:0 0 0 4px;line-height:1.6;&quot;&gt;~ requestedUserDetails: Map&amp;lt;Integer, Map&amp;lt;UserBasicDetailType, Object&amp;gt;&amp;gt;&lt;/p&gt;&lt;hr size=&quot;1&quot;/&gt;&lt;p style=&quot;margin:0 0 0 4px;line-height:1.6;&quot;&gt;+ builder(): GetSpecificUsersDetailsResponseBuilder&lt;br/&gt;# canEqual(Object): boolean&lt;br/&gt;+ getRequestedUserDetails(): Map&amp;lt;Integer, Map&amp;lt;UserBasicDetailType, Object&amp;gt;&amp;gt;&lt;br/&gt;+ toString(): String&lt;br/&gt;+ equals(Object): boolean&lt;br/&gt;+ hashCode(): int&lt;br/&gt;+ setRequestedUserDetails(Map&amp;lt;Integer, Map&amp;lt;UserBasicDetailType, Object&amp;gt;&amp;gt;): void&lt;/p&gt;" style="verticalAlign=top;align=left;overflow=fill;fontSize=14;fontFamily=Helvetica;html=1;rounded=0;shadow=0;comic=0;labelBackgroundColor=none;strokeWidth=1;" parent="1" vertex="1">
          <mxGeometry x="31" y="9545" width="545" height="68" as="geometry" />
        </mxCell>
        <mxCell id="node48" value="&lt;p style=&quot;margin:0px;margin-top:4px;text-align:center;&quot;&gt;&lt;b&gt;GetUserAccountStatusResponse&lt;/b&gt;&lt;/p&gt;&lt;hr size=&quot;1&quot;/&gt;&lt;p style=&quot;margin:0 0 0 4px;line-height:1.6;&quot;&gt;- userStatus: UserStatus&lt;br/&gt;- banExpiryTime: ZonedDateTime&lt;/p&gt;&lt;hr size=&quot;1&quot;/&gt;&lt;p style=&quot;margin:0 0 0 4px;line-height:1.6;&quot;&gt;+ equals(Object): boolean&lt;br/&gt;# canEqual(Object): boolean&lt;br/&gt;+ hashCode(): int&lt;br/&gt;+ toString(): String&lt;br/&gt;+ getUserStatus(): UserStatus&lt;br/&gt;+ getBanExpiryTime(): ZonedDateTime&lt;br/&gt;+ setBanExpiryTime(ZonedDateTime): void&lt;br/&gt;+ builder(): GetUserAccountStatusResponseBuilder&lt;br/&gt;+ setUserStatus(UserStatus): void&lt;/p&gt;" style="verticalAlign=top;align=left;overflow=fill;fontSize=14;fontFamily=Helvetica;html=1;rounded=0;shadow=0;comic=0;labelBackgroundColor=none;strokeWidth=1;" parent="1" vertex="1">
          <mxGeometry x="-270" y="9198" width="303" height="94" as="geometry" />
        </mxCell>
        <mxCell id="node18" value="&lt;p style=&quot;margin:0px;margin-top:4px;text-align:center;&quot;&gt;&lt;b&gt;GetUserActionsResponse&lt;/b&gt;&lt;/p&gt;&lt;hr size=&quot;1&quot;/&gt;&lt;p style=&quot;margin:0 0 0 4px;line-height:1.6;&quot;&gt;- totalItems: Integer&lt;br/&gt;- currentPage: Integer&lt;br/&gt;- hasNextPage: Boolean&lt;br/&gt;- totalPages: Integer&lt;br/&gt;- itemsPerPage: Integer&lt;br/&gt;~ userActions: List&amp;lt;ActionLogDTO&amp;gt;&lt;br/&gt;- hasPreviousPage: Boolean&lt;/p&gt;&lt;hr size=&quot;1&quot;/&gt;&lt;p style=&quot;margin:0 0 0 4px;line-height:1.6;&quot;&gt;+ setCurrentPage(Integer): void&lt;br/&gt;# canEqual(Object): boolean&lt;br/&gt;+ getTotalItems(): Integer&lt;br/&gt;+ setTotalItems(Integer): void&lt;br/&gt;+ getCurrentPage(): Integer&lt;br/&gt;+ setHasNextPage(Boolean): void&lt;br/&gt;+ getHasPreviousPage(): Boolean&lt;br/&gt;+ hashCode(): int&lt;br/&gt;+ getUserActions(): List&amp;lt;ActionLogDTO&amp;gt;&lt;br/&gt;+ getHasNextPage(): Boolean&lt;br/&gt;+ getTotalPages(): Integer&lt;br/&gt;+ getItemsPerPage(): Integer&lt;br/&gt;+ setItemsPerPage(Integer): void&lt;br/&gt;+ builder(): GetUserActionsResponseBuilder&lt;br/&gt;+ setUserActions(List&amp;lt;ActionLogDTO&amp;gt;): void&lt;br/&gt;+ setTotalPages(Integer): void&lt;br/&gt;+ setHasPreviousPage(Boolean): void&lt;br/&gt;+ equals(Object): boolean&lt;br/&gt;+ toString(): String&lt;/p&gt;" style="verticalAlign=top;align=left;overflow=fill;fontSize=14;fontFamily=Helvetica;html=1;rounded=0;shadow=0;comic=0;labelBackgroundColor=none;strokeWidth=1;" parent="1" vertex="1">
          <mxGeometry x="1141" y="9333" width="301" height="204" as="geometry" />
        </mxCell>
        <mxCell id="node17" value="&lt;p style=&quot;margin:0px;margin-top:4px;text-align:center;&quot;&gt;&lt;b&gt;GetUserDetailsResponse&lt;/b&gt;&lt;/p&gt;&lt;hr size=&quot;1&quot;/&gt;&lt;p style=&quot;margin:0 0 0 4px;line-height:1.6;&quot;&gt;- name: String&lt;br/&gt;- stateRegion: String&lt;br/&gt;- surname: String&lt;br/&gt;- username: String&lt;br/&gt;- userRole: String&lt;br/&gt;- userId: Integer&lt;br/&gt;- email: String&lt;br/&gt;- phoneNumber: String&lt;br/&gt;- joinDate: ZonedDateTime&lt;br/&gt;- userImage: String&lt;br/&gt;- address: String&lt;br/&gt;- country: String&lt;/p&gt;&lt;hr size=&quot;1&quot;/&gt;&lt;p style=&quot;margin:0 0 0 4px;line-height:1.6;&quot;&gt;+ getCountry(): String&lt;br/&gt;+ setJoinDate(ZonedDateTime): void&lt;br/&gt;+ getSurname(): String&lt;br/&gt;+ setStateRegion(String): void&lt;br/&gt;+ setEmail(String): void&lt;br/&gt;+ setUserRole(String): void&lt;br/&gt;+ toString(): String&lt;br/&gt;+ setCountry(String): void&lt;br/&gt;+ getStateRegion(): String&lt;br/&gt;+ setUserId(Integer): void&lt;br/&gt;+ setUsername(String): void&lt;br/&gt;+ getJoinDate(): ZonedDateTime&lt;br/&gt;+ getPhoneNumber(): String&lt;br/&gt;+ hashCode(): int&lt;br/&gt;+ setAddress(String): void&lt;br/&gt;+ getUserImage(): String&lt;br/&gt;+ builder(): GetUserDetailsResponseBuilder&lt;br/&gt;+ setSurname(String): void&lt;br/&gt;+ equals(Object): boolean&lt;br/&gt;+ getUserRole(): String&lt;br/&gt;+ getName(): String&lt;br/&gt;+ setName(String): void&lt;br/&gt;+ getAddress(): String&lt;br/&gt;# canEqual(Object): boolean&lt;br/&gt;+ getEmail(): String&lt;br/&gt;+ setPhoneNumber(String): void&lt;br/&gt;+ getUserId(): Integer&lt;br/&gt;+ getUsername(): String&lt;br/&gt;+ setUserImage(String): void&lt;/p&gt;" style="verticalAlign=top;align=left;overflow=fill;fontSize=14;fontFamily=Helvetica;html=1;rounded=0;shadow=0;comic=0;labelBackgroundColor=none;strokeWidth=1;" parent="1" vertex="1">
          <mxGeometry x="-952" y="9486" width="278" height="323" as="geometry" />
        </mxCell>
        <mxCell id="node6" value="&lt;p style=&quot;margin:0px;margin-top:4px;text-align:center;&quot;&gt;&lt;i&gt;&amp;lt;&amp;lt;interface&amp;gt;&amp;gt;&lt;/i&gt;&lt;br/&gt;&lt;b&gt;GetUserDetailsService&lt;/b&gt;&lt;/p&gt;&lt;hr size=&quot;1&quot;/&gt;&lt;p style=&quot;margin:0 0 0 4px;line-height:1.6;&quot;&gt;+ getSpecificUsersDetails(GetSpecificUsersDetailsRequest): GetSpecificUsersDetailsResponse&lt;br/&gt;+ getUserDetailsByUsername(String): GetUserDetailsResponse&lt;br/&gt;+ getUserDetails(Integer): GetUserDetailsResponse&lt;/p&gt;" style="verticalAlign=top;align=left;overflow=fill;fontSize=14;fontFamily=Helvetica;html=1;rounded=0;shadow=0;comic=0;labelBackgroundColor=none;strokeWidth=1;" parent="1" vertex="1">
          <mxGeometry x="-167" y="11556" width="619" height="139" as="geometry" />
        </mxCell>
        <mxCell id="node28" value="&lt;p style=&quot;margin:0px;margin-top:4px;text-align:center;&quot;&gt;&lt;b&gt;GetUserDetailsServiceImpl&lt;/b&gt;&lt;/p&gt;&lt;hr size=&quot;1&quot;/&gt;&lt;p style=&quot;margin:0 0 0 4px;line-height:1.6;&quot;&gt;- exceptionFactory: ExceptionFactory&lt;br/&gt;- userRepository: UserRepository&lt;br/&gt;- log: Logger&lt;/p&gt;&lt;hr size=&quot;1&quot;/&gt;&lt;p style=&quot;margin:0 0 0 4px;line-height:1.6;&quot;&gt;- getSpecificDetail(UserBasicDetailType, User): Object&lt;br/&gt;+ getUserDetailsByUsername(String): GetUserDetailsResponse&lt;br/&gt;+ getSpecificUsersDetails(GetSpecificUsersDetailsRequest): GetSpecificUsersDetailsResponse&lt;br/&gt;+ getUserDetails(Integer): GetUserDetailsResponse&lt;/p&gt;" style="verticalAlign=top;align=left;overflow=fill;fontSize=14;fontFamily=Helvetica;html=1;rounded=0;shadow=0;comic=0;labelBackgroundColor=none;strokeWidth=1;" parent="1" vertex="1">
          <mxGeometry x="87" y="11725" width="619" height="209" as="geometry" />
        </mxCell>
        <mxCell id="node0" value="&lt;p style=&quot;margin:0px;margin-top:4px;text-align:center;&quot;&gt;&lt;b&gt;JsonNodeConverter&lt;/b&gt;&lt;/p&gt;&lt;hr size=&quot;1&quot;/&gt;&lt;p style=&quot;margin:0 0 0 4px;line-height:1.6;&quot;&gt;- objectMapper: ObjectMapper&lt;/p&gt;&lt;hr size=&quot;1&quot;/&gt;&lt;p style=&quot;margin:0 0 0 4px;line-height:1.6;&quot;&gt;+ convertToDatabaseColumn(JsonNode): String&lt;br/&gt;+ convertToEntityAttribute(String): JsonNode&lt;/p&gt;" style="verticalAlign=top;align=left;overflow=fill;fontSize=14;fontFamily=Helvetica;html=1;rounded=0;shadow=0;comic=0;labelBackgroundColor=none;strokeWidth=1;" parent="1" vertex="1">
          <mxGeometry x="744" y="8959" width="360" height="121" as="geometry" />
        </mxCell>
        <mxCell id="node22" value="&lt;p style=&quot;margin:0px;margin-top:4px;text-align:center;&quot;&gt;&lt;b&gt;JwtService&lt;/b&gt;&lt;/p&gt;&lt;hr size=&quot;1&quot;/&gt;&lt;p style=&quot;margin:0 0 0 4px;line-height:1.6;&quot;&gt;- secretKey: String&lt;br/&gt;- USER_ROLE_JWT_KEY: String&lt;br/&gt;- refreshExpirationMs: long&lt;br/&gt;- USER_ID_JWT_KEY: String&lt;br/&gt;- jwtExpirationMs: long&lt;br/&gt;- signingKey: Key&lt;/p&gt;&lt;hr size=&quot;1&quot;/&gt;&lt;p style=&quot;margin:0 0 0 4px;line-height:1.6;&quot;&gt;+ init(): void&lt;br/&gt;- createToken(Map&amp;lt;String, Object&amp;gt;, String, long): String&lt;br/&gt;- getAllClaimsFromToken(String): Claims&lt;br/&gt;+ generateToken(UserDetails): String&lt;br/&gt;+ generateRefreshToken(UserDetails): String&lt;br/&gt;- createToken(Map&amp;lt;String, Object&amp;gt;, String): String&lt;br/&gt;+ getUsernameFromToken(String): String&lt;br/&gt;- isTokenExpired(String): boolean&lt;br/&gt;+ getSigningKey(): Key&lt;br/&gt;- getClaimFromToken(String, Function&amp;lt;Claims, T&amp;gt;): T&lt;/p&gt;" style="verticalAlign=top;align=left;overflow=fill;fontSize=14;fontFamily=Helvetica;html=1;rounded=0;shadow=0;comic=0;labelBackgroundColor=none;strokeWidth=1;" parent="1" vertex="1">
          <mxGeometry x="996" y="9988" width="390" height="425" as="geometry" />
        </mxCell>
        <mxCell id="node29" value="&lt;p style=&quot;margin:0px;margin-top:4px;text-align:center;&quot;&gt;&lt;b&gt;LoginRequest&lt;/b&gt;&lt;/p&gt;&lt;hr size=&quot;1&quot;/&gt;&lt;p style=&quot;margin:0 0 0 4px;line-height:1.6;&quot;&gt;- password: String&lt;br/&gt;- username: String&lt;/p&gt;&lt;hr size=&quot;1&quot;/&gt;&lt;p style=&quot;margin:0 0 0 4px;line-height:1.6;&quot;&gt;+ getPassword(): String&lt;br/&gt;# canEqual(Object): boolean&lt;br/&gt;+ builder(): LoginRequestBuilder&lt;br/&gt;+ hashCode(): int&lt;br/&gt;+ toString(): String&lt;br/&gt;+ getUsername(): String&lt;br/&gt;+ setUsername(String): void&lt;br/&gt;+ setPassword(String): void&lt;br/&gt;+ equals(Object): boolean&lt;/p&gt;" style="verticalAlign=top;align=left;overflow=fill;fontSize=14;fontFamily=Helvetica;html=1;rounded=0;shadow=0;comic=0;labelBackgroundColor=none;strokeWidth=1;" parent="1" vertex="1">
          <mxGeometry x="-297" y="9823" width="243" height="96" as="geometry" />
        </mxCell>
        <mxCell id="node9" value="&lt;p style=&quot;margin:0px;margin-top:4px;text-align:center;&quot;&gt;&lt;b&gt;LoginResponse&lt;/b&gt;&lt;/p&gt;&lt;hr size=&quot;1&quot;/&gt;&lt;p style=&quot;margin:0 0 0 4px;line-height:1.6;&quot;&gt;- jwtToken: String&lt;/p&gt;&lt;hr size=&quot;1&quot;/&gt;&lt;p style=&quot;margin:0 0 0 4px;line-height:1.6;&quot;&gt;# canEqual(Object): boolean&lt;br/&gt;+ toString(): String&lt;br/&gt;+ setJwtToken(String): void&lt;br/&gt;+ getJwtToken(): String&lt;br/&gt;+ hashCode(): int&lt;br/&gt;+ equals(Object): boolean&lt;br/&gt;+ builder(): LoginResponseBuilder&lt;/p&gt;" style="verticalAlign=top;align=left;overflow=fill;fontSize=14;fontFamily=Helvetica;html=1;rounded=0;shadow=0;comic=0;labelBackgroundColor=none;strokeWidth=1;" parent="1" vertex="1">
          <mxGeometry x="169" y="10607" width="247" height="64" as="geometry" />
        </mxCell>
        <mxCell id="node35" value="&lt;p style=&quot;margin:0px;margin-top:4px;text-align:center;&quot;&gt;&lt;b&gt;Oauth2Request&lt;/b&gt;&lt;/p&gt;&lt;hr size=&quot;1&quot;/&gt;&lt;p style=&quot;margin:0 0 0 4px;line-height:1.6;&quot;&gt;- oauth2UserId: String&lt;br/&gt;- userImage: String&lt;br/&gt;- email: String&lt;br/&gt;- name: String&lt;br/&gt;- surname: String&lt;/p&gt;&lt;hr size=&quot;1&quot;/&gt;&lt;p style=&quot;margin:0 0 0 4px;line-height:1.6;&quot;&gt;+ setOauth2UserId(String): void&lt;br/&gt;+ setEmail(String): void&lt;br/&gt;+ builder(): Oauth2RequestBuilder&lt;br/&gt;+ getEmail(): String&lt;br/&gt;+ equals(Object): boolean&lt;br/&gt;+ setSurname(String): void&lt;br/&gt;+ setUserImage(String): void&lt;br/&gt;+ toString(): String&lt;br/&gt;+ getSurname(): String&lt;br/&gt;# canEqual(Object): boolean&lt;br/&gt;+ getName(): String&lt;br/&gt;+ setName(String): void&lt;br/&gt;+ getUserImage(): String&lt;br/&gt;+ hashCode(): int&lt;br/&gt;+ getOauth2UserId(): String&lt;/p&gt;" style="verticalAlign=top;align=left;overflow=fill;fontSize=14;fontFamily=Helvetica;html=1;rounded=0;shadow=0;comic=0;labelBackgroundColor=none;strokeWidth=1;" parent="1" vertex="1">
          <mxGeometry x="717" y="10123" width="205" height="154" as="geometry" />
        </mxCell>
        <mxCell id="node62" value="&lt;p style=&quot;margin:0px;margin-top:4px;text-align:center;&quot;&gt;&lt;b&gt;Oauth2Response&lt;/b&gt;&lt;/p&gt;&lt;hr size=&quot;1&quot;/&gt;&lt;p style=&quot;margin:0 0 0 4px;line-height:1.6;&quot;&gt;- userId: Integer&lt;br/&gt;- registeredNow: Boolean&lt;/p&gt;&lt;hr size=&quot;1&quot;/&gt;&lt;p style=&quot;margin:0 0 0 4px;line-height:1.6;&quot;&gt;+ builder(): Oauth2ResponseBuilder&lt;br/&gt;+ setRegisteredNow(Boolean): void&lt;br/&gt;+ hashCode(): int&lt;br/&gt;+ toString(): String&lt;br/&gt;+ setUserId(Integer): void&lt;br/&gt;# canEqual(Object): boolean&lt;br/&gt;+ equals(Object): boolean&lt;br/&gt;+ getUserId(): Integer&lt;br/&gt;+ getRegisteredNow(): Boolean&lt;/p&gt;" style="verticalAlign=top;align=left;overflow=fill;fontSize=14;fontFamily=Helvetica;html=1;rounded=0;shadow=0;comic=0;labelBackgroundColor=none;strokeWidth=1;" parent="1" vertex="1">
          <mxGeometry x="-952" y="10360" width="224" height="95" as="geometry" />
        </mxCell>
        <mxCell id="node40" value="&lt;p style=&quot;margin:0px;margin-top:4px;text-align:center;&quot;&gt;&lt;b&gt;PasswordResetRequest&lt;/b&gt;&lt;/p&gt;&lt;hr size=&quot;1&quot;/&gt;&lt;p style=&quot;margin:0 0 0 4px;line-height:1.6;&quot;&gt;- password: String&lt;br/&gt;- newPassword: String&lt;/p&gt;&lt;hr size=&quot;1&quot;/&gt;&lt;p style=&quot;margin:0 0 0 4px;line-height:1.6;&quot;&gt;+ getNewPassword(): String&lt;br/&gt;+ hashCode(): int&lt;br/&gt;# canEqual(Object): boolean&lt;br/&gt;+ getPassword(): String&lt;br/&gt;+ builder(): PasswordResetRequestBuilder&lt;br/&gt;+ setPassword(String): void&lt;br/&gt;+ equals(Object): boolean&lt;br/&gt;+ setNewPassword(String): void&lt;br/&gt;+ toString(): String&lt;/p&gt;" style="verticalAlign=top;align=left;overflow=fill;fontSize=14;fontFamily=Helvetica;html=1;rounded=0;shadow=0;comic=0;labelBackgroundColor=none;strokeWidth=1;" parent="1" vertex="1">
          <mxGeometry x="-228" y="9645" width="253" height="87" as="geometry" />
        </mxCell>
        <mxCell id="node31" value="&lt;p style=&quot;margin:0px;margin-top:4px;text-align:center;&quot;&gt;&lt;i&gt;&amp;lt;&amp;lt;enumeration&amp;gt;&amp;gt;&lt;/i&gt;&lt;br/&gt;&lt;b&gt;RegisterProcessPhase&lt;/b&gt;&lt;/p&gt;&lt;hr size=&quot;1&quot;/&gt;&lt;p style=&quot;margin:0 0 0 4px;line-height:1.6;&quot;&gt;+ SEND_SECURITY_CODE: &lt;br/&gt;+ FINALIZE: &lt;br/&gt;+ VERIFY_DATA: &lt;/p&gt;&lt;hr size=&quot;1&quot;/&gt;&lt;p style=&quot;margin:0 0 0 4px;line-height:1.6;&quot;&gt;+ values(): RegisterProcessPhase[]&lt;br/&gt;+ valueOf(String): RegisterProcessPhase&lt;/p&gt;" style="verticalAlign=top;align=left;overflow=fill;fontSize=14;fontFamily=Helvetica;html=1;rounded=0;shadow=0;comic=0;labelBackgroundColor=none;strokeWidth=1;" parent="1" vertex="1">
          <mxGeometry x="-620" y="9159" width="256" height="134" as="geometry" />
        </mxCell>
        <mxCell id="node61" value="&lt;p style=&quot;margin:0px;margin-top:4px;text-align:center;&quot;&gt;&lt;b&gt;RegisterRequest&lt;/b&gt;&lt;/p&gt;&lt;hr size=&quot;1&quot;/&gt;&lt;p style=&quot;margin:0 0 0 4px;line-height:1.6;&quot;&gt;- name: String&lt;br/&gt;- password: String&lt;br/&gt;- userImage: String&lt;br/&gt;- processPhase: RegisterProcessPhase&lt;br/&gt;- surname: String&lt;br/&gt;- securityCode: String&lt;br/&gt;- username: String&lt;br/&gt;- email: String&lt;/p&gt;&lt;hr size=&quot;1&quot;/&gt;&lt;p style=&quot;margin:0 0 0 4px;line-height:1.6;&quot;&gt;+ getUserImage(): String&lt;br/&gt;+ setSurname(String): void&lt;br/&gt;+ setSecurityCode(String): void&lt;br/&gt;+ setUsername(String): void&lt;br/&gt;+ setUserImage(String): void&lt;br/&gt;+ hashCode(): int&lt;br/&gt;+ equals(Object): boolean&lt;br/&gt;+ setPassword(String): void&lt;br/&gt;# canEqual(Object): boolean&lt;br/&gt;+ toString(): String&lt;br/&gt;+ setName(String): void&lt;br/&gt;+ setEmail(String): void&lt;br/&gt;+ getPassword(): String&lt;br/&gt;+ getProcessPhase(): RegisterProcessPhase&lt;br/&gt;+ builder(): RegisterRequestBuilder&lt;br/&gt;+ getUsername(): String&lt;br/&gt;+ getSurname(): String&lt;br/&gt;+ setProcessPhase(RegisterProcessPhase): void&lt;br/&gt;+ getEmail(): String&lt;br/&gt;+ getName(): String&lt;br/&gt;+ getSecurityCode(): String&lt;/p&gt;" style="verticalAlign=top;align=left;overflow=fill;fontSize=14;fontFamily=Helvetica;html=1;rounded=0;shadow=0;comic=0;labelBackgroundColor=none;strokeWidth=1;" parent="1" vertex="1">
          <mxGeometry x="-571" y="9500" width="225" height="225" as="geometry" />
        </mxCell>
        <mxCell id="node21" value="&lt;p style=&quot;margin:0px;margin-top:4px;text-align:center;&quot;&gt;&lt;b&gt;RegisterResponse&lt;/b&gt;&lt;/p&gt;&lt;hr size=&quot;1&quot;/&gt;&lt;p style=&quot;margin:0 0 0 4px;line-height:1.6;&quot;&gt;- userId: Integer&lt;br/&gt;- jwtToken: String&lt;/p&gt;&lt;hr size=&quot;1&quot;/&gt;&lt;p style=&quot;margin:0 0 0 4px;line-height:1.6;&quot;&gt;+ builder(): RegisterResponseBuilder&lt;br/&gt;# canEqual(Object): boolean&lt;br/&gt;+ getJwtToken(): String&lt;br/&gt;+ setUserId(Integer): void&lt;br/&gt;+ setJwtToken(String): void&lt;br/&gt;+ getUserId(): Integer&lt;br/&gt;+ hashCode(): int&lt;br/&gt;+ equals(Object): boolean&lt;br/&gt;+ toString(): String&lt;/p&gt;" style="verticalAlign=top;align=left;overflow=fill;fontSize=14;fontFamily=Helvetica;html=1;rounded=0;shadow=0;comic=0;labelBackgroundColor=none;strokeWidth=1;" parent="1" vertex="1">
          <mxGeometry x="205" y="10445" width="258" height="96" as="geometry" />
        </mxCell>
        <mxCell id="node30" value="&lt;p style=&quot;margin:0px;margin-top:4px;text-align:center;&quot;&gt;&lt;i&gt;&amp;lt;&amp;lt;interface&amp;gt;&amp;gt;&lt;/i&gt;&lt;br/&gt;&lt;b&gt;ScheduledOperationsService&lt;/b&gt;&lt;/p&gt;&lt;hr size=&quot;1&quot;/&gt;&lt;p style=&quot;margin:0 0 0 4px;line-height:1.6;&quot;&gt;+ securityCodesExpire(): void&lt;br/&gt;+ removeUsersBan(): void&lt;/p&gt;" style="verticalAlign=top;align=left;overflow=fill;fontSize=14;fontFamily=Helvetica;html=1;rounded=0;shadow=0;comic=0;labelBackgroundColor=none;strokeWidth=1;" parent="1" vertex="1">
          <mxGeometry x="-199" y="10252" width="277" height="109" as="geometry" />
        </mxCell>
        <mxCell id="node13" value="&lt;p style=&quot;margin:0px;margin-top:4px;text-align:center;&quot;&gt;&lt;b&gt;ScheduledOperationsServiceImpl&lt;/b&gt;&lt;/p&gt;&lt;hr size=&quot;1&quot;/&gt;&lt;p style=&quot;margin:0 0 0 4px;line-height:1.6;&quot;&gt;- log: Logger&lt;br/&gt;- exceptionFactory: ExceptionFactory&lt;br/&gt;- securityCodeRepository: SecurityCodeRepository&lt;br/&gt;- maxSeconds: Integer&lt;br/&gt;- userRepository: UserRepository&lt;/p&gt;&lt;hr size=&quot;1&quot;/&gt;&lt;p style=&quot;margin:0 0 0 4px;line-height:1.6;&quot;&gt;+ securityCodesExpire(): void&lt;br/&gt;+ removeUsersBan(): void&lt;/p&gt;" style="verticalAlign=top;align=left;overflow=fill;fontSize=14;fontFamily=Helvetica;html=1;rounded=0;shadow=0;comic=0;labelBackgroundColor=none;strokeWidth=1;" parent="1" vertex="1">
          <mxGeometry x="369" y="12044" width="349" height="209" as="geometry" />
        </mxCell>
        <mxCell id="node27" value="&lt;p style=&quot;margin:0px;margin-top:4px;text-align:center;&quot;&gt;&lt;b&gt;SecurityCode&lt;/b&gt;&lt;/p&gt;&lt;hr size=&quot;1&quot;/&gt;&lt;p style=&quot;margin:0 0 0 4px;line-height:1.6;&quot;&gt;- email: String&lt;br/&gt;- codeType: SecurityCodeType&lt;br/&gt;- code: String&lt;br/&gt;- id: Integer&lt;br/&gt;- createdAt: ZonedDateTime&lt;/p&gt;&lt;hr size=&quot;1&quot;/&gt;&lt;p style=&quot;margin:0 0 0 4px;line-height:1.6;&quot;&gt;+ toString(): String&lt;br/&gt;+ getCreatedAt(): ZonedDateTime&lt;br/&gt;+ getId(): Integer&lt;br/&gt;+ getEmail(): String&lt;br/&gt;+ setId(Integer): void&lt;br/&gt;+ equals(Object): boolean&lt;br/&gt;+ getCodeType(): SecurityCodeType&lt;br/&gt;+ builder(): SecurityCodeBuilder&lt;br/&gt;+ getCode(): String&lt;br/&gt;+ setCreatedAt(): void&lt;br/&gt;+ setCreatedAt(ZonedDateTime): void&lt;br/&gt;+ setEmail(String): void&lt;br/&gt;+ setCode(String): void&lt;br/&gt;# canEqual(Object): boolean&lt;br/&gt;+ setCodeType(SecurityCodeType): void&lt;br/&gt;+ hashCode(): int&lt;/p&gt;" style="verticalAlign=top;align=left;overflow=fill;fontSize=14;fontFamily=Helvetica;html=1;rounded=0;shadow=0;comic=0;labelBackgroundColor=none;strokeWidth=1;" parent="1" vertex="1">
          <mxGeometry x="780" y="9382" width="287" height="154" as="geometry" />
        </mxCell>
        <mxCell id="node63" value="&lt;p style=&quot;margin:0px;margin-top:4px;text-align:center;&quot;&gt;&lt;i&gt;&amp;lt;&amp;lt;interface&amp;gt;&amp;gt;&lt;/i&gt;&lt;br/&gt;&lt;b&gt;SecurityCodeRepository&lt;/b&gt;&lt;/p&gt;&lt;hr size=&quot;1&quot;/&gt;&lt;p style=&quot;margin:0 0 0 4px;line-height:1.6;&quot;&gt;+ deleteByEmailAndCodeAndCodeType(String, String, SecurityCodeType): void&lt;br/&gt;+ findByEmailAndCodeAndCodeType(String, String, SecurityCodeType): Optional&amp;lt;SecurityCode&amp;gt;&lt;br/&gt;+ deleteByEmailAndCodeType(String, SecurityCodeType): void&lt;/p&gt;" style="verticalAlign=top;align=left;overflow=fill;fontSize=14;fontFamily=Helvetica;html=1;rounded=0;shadow=0;comic=0;labelBackgroundColor=none;strokeWidth=1;" parent="1" vertex="1">
          <mxGeometry x="362" y="10977" width="610" height="139" as="geometry" />
        </mxCell>
        <mxCell id="node64" value="&lt;p style=&quot;margin:0px;margin-top:4px;text-align:center;&quot;&gt;&lt;i&gt;&amp;lt;&amp;lt;interface&amp;gt;&amp;gt;&lt;/i&gt;&lt;br/&gt;&lt;b&gt;SecurityCodeService&lt;/b&gt;&lt;/p&gt;&lt;hr size=&quot;1&quot;/&gt;&lt;p style=&quot;margin:0 0 0 4px;line-height:1.6;&quot;&gt;+ sendSecurityCode(SendSecurityCodeRequest): void&lt;/p&gt;" style="verticalAlign=top;align=left;overflow=fill;fontSize=14;fontFamily=Helvetica;html=1;rounded=0;shadow=0;comic=0;labelBackgroundColor=none;strokeWidth=1;" parent="1" vertex="1">
          <mxGeometry x="562" y="10848" width="367" height="79" as="geometry" />
        </mxCell>
        <mxCell id="node8" value="&lt;p style=&quot;margin:0px;margin-top:4px;text-align:center;&quot;&gt;&lt;b&gt;SecurityCodeServiceImpl&lt;/b&gt;&lt;/p&gt;&lt;hr size=&quot;1&quot;/&gt;&lt;p style=&quot;margin:0 0 0 4px;line-height:1.6;&quot;&gt;- randomCodeGenerator: RandomCodeGenerator&lt;br/&gt;- securityCodeLength: Integer&lt;br/&gt;- securityCodeRepository: SecurityCodeRepository&lt;br/&gt;- exceptionFactory: ExceptionFactory&lt;br/&gt;- log: Logger&lt;br/&gt;- emailSenderService: EmailSenderService&lt;/p&gt;&lt;hr size=&quot;1&quot;/&gt;&lt;p style=&quot;margin:0 0 0 4px;line-height:1.6;&quot;&gt;+ sendSecurityCode(SendSecurityCodeRequest): void&lt;/p&gt;" style="verticalAlign=top;align=left;overflow=fill;fontSize=14;fontFamily=Helvetica;html=1;rounded=0;shadow=0;comic=0;labelBackgroundColor=none;strokeWidth=1;" parent="1" vertex="1">
          <mxGeometry x="1067" y="11090" width="367" height="209" as="geometry" />
        </mxCell>
        <mxCell id="node5" value="&lt;p style=&quot;margin:0px;margin-top:4px;text-align:center;&quot;&gt;&lt;i&gt;&amp;lt;&amp;lt;enumeration&amp;gt;&amp;gt;&lt;/i&gt;&lt;br/&gt;&lt;b&gt;SecurityCodeType&lt;/b&gt;&lt;/p&gt;&lt;hr size=&quot;1&quot;/&gt;&lt;p style=&quot;margin:0 0 0 4px;line-height:1.6;&quot;&gt;+ REGISTRATION: &lt;br/&gt;+ FORGOTTEN_PASSWORD_RESET: &lt;br/&gt;+ EMAIL_RESET: &lt;/p&gt;&lt;hr size=&quot;1&quot;/&gt;&lt;p style=&quot;margin:0 0 0 4px;line-height:1.6;&quot;&gt;+ values(): SecurityCodeType[]&lt;br/&gt;+ valueOf(String): SecurityCodeType&lt;/p&gt;" style="verticalAlign=top;align=left;overflow=fill;fontSize=14;fontFamily=Helvetica;html=1;rounded=0;shadow=0;comic=0;labelBackgroundColor=none;strokeWidth=1;" parent="1" vertex="1">
          <mxGeometry x="1166" y="8961" width="251" height="136" as="geometry" />
        </mxCell>
        <mxCell id="node16" value="&lt;p style=&quot;margin:0px;margin-top:4px;text-align:center;&quot;&gt;&lt;b&gt;SecurityConfiguration&lt;/b&gt;&lt;/p&gt;&lt;hr size=&quot;1&quot;/&gt;&lt;p style=&quot;margin:0 0 0 4px;line-height:1.6;&quot;&gt;- WHITE_LIST_URL: String[]&lt;/p&gt;&lt;hr size=&quot;1&quot;/&gt;&lt;p style=&quot;margin:0 0 0 4px;line-height:1.6;&quot;&gt;+ securityFilterChain(HttpSecurity): SecurityFilterChain&lt;/p&gt;" style="verticalAlign=top;align=left;overflow=fill;fontSize=14;fontFamily=Helvetica;html=1;rounded=0;shadow=0;comic=0;labelBackgroundColor=none;strokeWidth=1;" parent="1" vertex="1">
          <mxGeometry x="592" y="9980" width="373" height="96" as="geometry" />
        </mxCell>
        <mxCell id="node24" value="&lt;p style=&quot;margin:0px;margin-top:4px;text-align:center;&quot;&gt;&lt;b&gt;SendPasswordResetCodeRequest&lt;/b&gt;&lt;/p&gt;&lt;hr size=&quot;1&quot;/&gt;&lt;p style=&quot;margin:0 0 0 4px;line-height:1.6;&quot;&gt;- email: String&lt;/p&gt;&lt;hr size=&quot;1&quot;/&gt;&lt;p style=&quot;margin:0 0 0 4px;line-height:1.6;&quot;&gt;+ setEmail(String): void&lt;br/&gt;+ toString(): String&lt;br/&gt;+ hashCode(): int&lt;br/&gt;# canEqual(Object): boolean&lt;br/&gt;+ builder(): SendPasswordResetCodeRequestBuilder&lt;br/&gt;+ getEmail(): String&lt;br/&gt;+ equals(Object): boolean&lt;/p&gt;" style="verticalAlign=top;align=left;overflow=fill;fontSize=14;fontFamily=Helvetica;html=1;rounded=0;shadow=0;comic=0;labelBackgroundColor=none;strokeWidth=1;" parent="1" vertex="1">
          <mxGeometry x="592" y="9837" width="316" height="63" as="geometry" />
        </mxCell>
        <mxCell id="node47" value="&lt;p style=&quot;margin:0px;margin-top:4px;text-align:center;&quot;&gt;&lt;b&gt;SendSecurityCodeRequest&lt;/b&gt;&lt;/p&gt;&lt;hr size=&quot;1&quot;/&gt;&lt;p style=&quot;margin:0 0 0 4px;line-height:1.6;&quot;&gt;- email: String&lt;br/&gt;- securityCodeType: SecurityCodeType&lt;/p&gt;&lt;hr size=&quot;1&quot;/&gt;&lt;p style=&quot;margin:0 0 0 4px;line-height:1.6;&quot;&gt;+ setEmail(String): void&lt;br/&gt;+ toString(): String&lt;br/&gt;+ builder(): SendSecurityCodeRequestBuilder&lt;br/&gt;# canEqual(Object): boolean&lt;br/&gt;+ setSecurityCodeType(SecurityCodeType): void&lt;br/&gt;+ equals(Object): boolean&lt;br/&gt;+ getSecurityCodeType(): SecurityCodeType&lt;br/&gt;+ hashCode(): int&lt;br/&gt;+ getEmail(): String&lt;/p&gt;" style="verticalAlign=top;align=left;overflow=fill;fontSize=14;fontFamily=Helvetica;html=1;rounded=0;shadow=0;comic=0;labelBackgroundColor=none;strokeWidth=1;" parent="1" vertex="1">
          <mxGeometry x="1021" y="9837" width="339" height="87" as="geometry" />
        </mxCell>
        <mxCell id="node52" value="&lt;p style=&quot;margin:0px;margin-top:4px;text-align:center;&quot;&gt;&lt;b&gt;UpdateAddProductActionDTO&lt;/b&gt;&lt;/p&gt;&lt;hr size=&quot;1&quot;/&gt;&lt;p style=&quot;margin:0 0 0 4px;line-height:1.6;&quot;&gt;- productTitle: String&lt;br/&gt;- productId: Integer&lt;/p&gt;&lt;hr size=&quot;1&quot;/&gt;&lt;p style=&quot;margin:0 0 0 4px;line-height:1.6;&quot;&gt;+ hashCode(): int&lt;br/&gt;+ builder(): UpdateAddProductActionDTOBuilder&lt;br/&gt;+ equals(Object): boolean&lt;br/&gt;+ getProductTitle(): String&lt;br/&gt;# canEqual(Object): boolean&lt;br/&gt;+ setProductId(Integer): void&lt;br/&gt;+ toString(): String&lt;br/&gt;+ getProductId(): Integer&lt;br/&gt;+ setProductTitle(String): void&lt;/p&gt;" style="verticalAlign=top;align=left;overflow=fill;fontSize=14;fontFamily=Helvetica;html=1;rounded=0;shadow=0;comic=0;labelBackgroundColor=none;strokeWidth=1;" parent="1" vertex="1">
          <mxGeometry x="-245" y="9427" width="286" height="88" as="geometry" />
        </mxCell>
        <mxCell id="node49" value="&lt;p style=&quot;margin:0px;margin-top:4px;text-align:center;&quot;&gt;&lt;b&gt;UpdateBasicUserDetailsRequest&lt;/b&gt;&lt;/p&gt;&lt;hr size=&quot;1&quot;/&gt;&lt;p style=&quot;margin:0 0 0 4px;line-height:1.6;&quot;&gt;~ userDetails: Map&amp;lt;UserBasicDetailType, String&amp;gt;&lt;/p&gt;&lt;hr size=&quot;1&quot;/&gt;&lt;p style=&quot;margin:0 0 0 4px;line-height:1.6;&quot;&gt;+ equals(Object): boolean&lt;br/&gt;+ toString(): String&lt;br/&gt;+ hashCode(): int&lt;br/&gt;+ builder(): UpdateBasicUserDetailsRequestBuilder&lt;br/&gt;+ getUserDetails(): Map&amp;lt;UserBasicDetailType, String&amp;gt;&lt;br/&gt;+ setUserDetails(Map&amp;lt;UserBasicDetailType, String&amp;gt;): void&lt;br/&gt;# canEqual(Object): boolean&lt;/p&gt;" style="verticalAlign=top;align=left;overflow=fill;fontSize=14;fontFamily=Helvetica;html=1;rounded=0;shadow=0;comic=0;labelBackgroundColor=none;strokeWidth=1;" parent="1" vertex="1">
          <mxGeometry x="-952" y="10230" width="405" height="63" as="geometry" />
        </mxCell>
        <mxCell id="node50" value="&lt;p style=&quot;margin:0px;margin-top:4px;text-align:center;&quot;&gt;&lt;i&gt;&amp;lt;&amp;lt;interface&amp;gt;&amp;gt;&lt;/i&gt;&lt;br/&gt;&lt;b&gt;UpdateUserDetailsService&lt;/b&gt;&lt;/p&gt;&lt;hr size=&quot;1&quot;/&gt;&lt;p style=&quot;margin:0 0 0 4px;line-height:1.6;&quot;&gt;+ emailReset(Integer, EmailResetRequest): void&lt;br/&gt;+ updateBasicUserDetails(Integer, UpdateBasicUserDetailsRequest): void&lt;br/&gt;+ passwordReset(Integer, PasswordResetRequest): void&lt;br/&gt;+ usernameReset(Integer, UsernameResetRequest): void&lt;/p&gt;" style="verticalAlign=top;align=left;overflow=fill;fontSize=14;fontFamily=Helvetica;html=1;rounded=0;shadow=0;comic=0;labelBackgroundColor=none;strokeWidth=1;" parent="1" vertex="1">
          <mxGeometry x="556" y="11387" width="473" height="169" as="geometry" />
        </mxCell>
        <mxCell id="node65" value="&lt;p style=&quot;margin:0px;margin-top:4px;text-align:center;&quot;&gt;&lt;b&gt;UpdateUserDetailsServiceImpl&lt;/b&gt;&lt;/p&gt;&lt;hr size=&quot;1&quot;/&gt;&lt;p style=&quot;margin:0 0 0 4px;line-height:1.6;&quot;&gt;- exceptionFactory: ExceptionFactory&lt;br/&gt;- authenticationManager: AuthenticationManager&lt;br/&gt;- passwordEncoder: PasswordEncoder&lt;br/&gt;- securityCodeRepository: SecurityCodeRepository&lt;br/&gt;- securityCodeService: SecurityCodeService&lt;br/&gt;- userRepository: UserRepository&lt;br/&gt;- log: Logger&lt;/p&gt;&lt;hr size=&quot;1&quot;/&gt;&lt;p style=&quot;margin:0 0 0 4px;line-height:1.6;&quot;&gt;+ updateBasicUserDetails(Integer, UpdateBasicUserDetailsRequest): void&lt;br/&gt;+ usernameReset(Integer, UsernameResetRequest): void&lt;br/&gt;+ passwordReset(Integer, PasswordResetRequest): void&lt;br/&gt;+ emailReset(Integer, EmailResetRequest): void&lt;/p&gt;" style="verticalAlign=top;align=left;overflow=fill;fontSize=14;fontFamily=Helvetica;html=1;rounded=0;shadow=0;comic=0;labelBackgroundColor=none;strokeWidth=1;" parent="1" vertex="1">
          <mxGeometry x="929" y="11580" width="473" height="305" as="geometry" />
        </mxCell>
        <mxCell id="node12" value="&lt;p style=&quot;margin:0px;margin-top:4px;text-align:center;&quot;&gt;&lt;b&gt;User&lt;/b&gt;&lt;/p&gt;&lt;hr size=&quot;1&quot;/&gt;&lt;p style=&quot;margin:0 0 0 4px;line-height:1.6;&quot;&gt;- userRole: UserRole&lt;br/&gt;- authProvider: AuthProvider&lt;br/&gt;- address: String&lt;br/&gt;- email: String&lt;br/&gt;- phoneNumber: String&lt;br/&gt;- country: String&lt;br/&gt;- status: UserStatus&lt;br/&gt;- surname: String&lt;br/&gt;- name: String&lt;br/&gt;- username: String&lt;br/&gt;- stateRegion: String&lt;br/&gt;- userImage: String&lt;br/&gt;- banExpiryTime: ZonedDateTime&lt;br/&gt;- oauth2UserId: String&lt;br/&gt;- userId: Integer&lt;br/&gt;- password: String&lt;br/&gt;- joinDate: ZonedDateTime&lt;/p&gt;&lt;hr size=&quot;1&quot;/&gt;&lt;p style=&quot;margin:0 0 0 4px;line-height:1.6;&quot;&gt;+ builder(): UserBuilder&lt;br/&gt;+ setAuthProvider(AuthProvider): void&lt;br/&gt;+ setUserImage(String): void&lt;br/&gt;+ setPhoneNumber(String): void&lt;br/&gt;+ hashCode(): int&lt;br/&gt;+ setCountry(String): void&lt;br/&gt;+ setJoinDate(ZonedDateTime): void&lt;br/&gt;+ getUserImage(): String&lt;br/&gt;+ setBanExpiryTime(ZonedDateTime): void&lt;br/&gt;+ getUserRole(): UserRole&lt;br/&gt;+ setPassword(String): void&lt;br/&gt;+ isCredentialsNonExpired(): boolean&lt;br/&gt;+ isAccountNonLocked(): boolean&lt;br/&gt;+ setUserId(Integer): void&lt;br/&gt;+ getOauth2UserId(): String&lt;br/&gt;+ setStatus(UserStatus): void&lt;br/&gt;+ equals(Object): boolean&lt;br/&gt;+ getAuthorities(): Collection&amp;lt;GrantedAuthority&amp;gt;&lt;br/&gt;+ setSurname(String): void&lt;br/&gt;+ toString(): String&lt;br/&gt;+ setUserRole(UserRole): void&lt;br/&gt;+ getSurname(): String&lt;br/&gt;+ getCountry(): String&lt;br/&gt;+ isAccountNonExpired(): boolean&lt;br/&gt;+ isEnabled(): boolean&lt;br/&gt;+ getUsername(): String&lt;br/&gt;+ setOauth2UserId(String): void&lt;br/&gt;+ setStateRegion(String): void&lt;br/&gt;+ getStateRegion(): String&lt;br/&gt;+ getBanExpiryTime(): ZonedDateTime&lt;br/&gt;# canEqual(Object): boolean&lt;br/&gt;+ getName(): String&lt;br/&gt;+ getAddress(): String&lt;br/&gt;+ setUsername(String): void&lt;br/&gt;+ setAddress(String): void&lt;br/&gt;+ setJoinDate(): void&lt;br/&gt;+ getUserId(): Integer&lt;br/&gt;+ getStatus(): UserStatus&lt;br/&gt;+ getAuthProvider(): AuthProvider&lt;br/&gt;+ setEmail(String): void&lt;br/&gt;+ getPhoneNumber(): String&lt;br/&gt;+ setName(String): void&lt;br/&gt;+ getJoinDate(): ZonedDateTime&lt;br/&gt;+ getEmail(): String&lt;br/&gt;+ getPassword(): String&lt;/p&gt;" style="verticalAlign=top;align=left;overflow=fill;fontSize=14;fontFamily=Helvetica;html=1;rounded=0;shadow=0;comic=0;labelBackgroundColor=none;strokeWidth=1;" parent="1" vertex="1">
          <mxGeometry x="-964" y="8902" width="272" height="444" as="geometry" />
        </mxCell>
        <mxCell id="node3" value="&lt;p style=&quot;margin:0px;margin-top:4px;text-align:center;&quot;&gt;&lt;i&gt;&amp;lt;&amp;lt;interface&amp;gt;&amp;gt;&lt;/i&gt;&lt;br/&gt;&lt;b&gt;UserActionService&lt;/b&gt;&lt;/p&gt;&lt;hr size=&quot;1&quot;/&gt;&lt;p style=&quot;margin:0 0 0 4px;line-height:1.6;&quot;&gt;+ auditUserAction(AuditUserActionRequest): void&lt;br/&gt;+ getUserActions(Integer, Integer, String): GetUserActionsResponse&lt;/p&gt;" style="verticalAlign=top;align=left;overflow=fill;fontSize=14;fontFamily=Helvetica;html=1;rounded=0;shadow=0;comic=0;labelBackgroundColor=none;strokeWidth=1;" parent="1" vertex="1">
          <mxGeometry x="-831.5" y="11262" width="459" height="109" as="geometry" />
        </mxCell>
        <mxCell id="node55" value="&lt;p style=&quot;margin:0px;margin-top:4px;text-align:center;&quot;&gt;&lt;b&gt;UserActionServiceImpl&lt;/b&gt;&lt;/p&gt;&lt;hr size=&quot;1&quot;/&gt;&lt;p style=&quot;margin:0 0 0 4px;line-height:1.6;&quot;&gt;- actionLogRepository: ActionLogRepository&lt;br/&gt;- UNBANNED_USER_ID: String&lt;br/&gt;- BAN_DURATION_DAYS: String&lt;br/&gt;- PRODUCT_TITLE: String&lt;br/&gt;- PRODUCT_ID: String&lt;br/&gt;- objectMapper: ObjectMapper&lt;br/&gt;- log: Logger&lt;br/&gt;- NEWEST_FIELD: String&lt;br/&gt;- BANNED_USER_ID: String&lt;/p&gt;&lt;hr size=&quot;1&quot;/&gt;&lt;p style=&quot;margin:0 0 0 4px;line-height:1.6;&quot;&gt;+ getUserActions(Integer, Integer, String): GetUserActionsResponse&lt;br/&gt;+ auditUserAction(AuditUserActionRequest): void&lt;/p&gt;" style="verticalAlign=top;align=left;overflow=fill;fontSize=14;fontFamily=Helvetica;html=1;rounded=0;shadow=0;comic=0;labelBackgroundColor=none;strokeWidth=1;" parent="1" vertex="1">
          <mxGeometry x="516" y="10413" width="459" height="305" as="geometry" />
        </mxCell>
        <mxCell id="node39" value="&lt;p style=&quot;margin:0px;margin-top:4px;text-align:center;&quot;&gt;&lt;i&gt;&amp;lt;&amp;lt;enumeration&amp;gt;&amp;gt;&lt;/i&gt;&lt;br/&gt;&lt;b&gt;UserActionsSearchCriteria&lt;/b&gt;&lt;/p&gt;&lt;hr size=&quot;1&quot;/&gt;&lt;p style=&quot;margin:0 0 0 4px;line-height:1.6;&quot;&gt;+ ONLY_ADMIN_ACTIONS: &lt;br/&gt;+ INCLUDE_ALL: &lt;br/&gt;+ ONLY_USER_ACTIONS: &lt;/p&gt;&lt;hr size=&quot;1&quot;/&gt;&lt;p style=&quot;margin:0 0 0 4px;line-height:1.6;&quot;&gt;+ valueOf(String): UserActionsSearchCriteria&lt;br/&gt;+ values(): UserActionsSearchCriteria[]&lt;/p&gt;" style="verticalAlign=top;align=left;overflow=fill;fontSize=14;fontFamily=Helvetica;html=1;rounded=0;shadow=0;comic=0;labelBackgroundColor=none;strokeWidth=1;" parent="1" vertex="1">
          <mxGeometry x="-167" y="10548" width="255" height="132" as="geometry" />
        </mxCell>
        <mxCell id="node53" value="&lt;p style=&quot;margin:0px;margin-top:4px;text-align:center;&quot;&gt;&lt;b&gt;UserAppConfig&lt;/b&gt;&lt;/p&gt;&lt;hr size=&quot;1&quot;/&gt;&lt;p style=&quot;margin:0 0 0 4px;line-height:1.6;&quot;&gt;- host: String&lt;br/&gt;- username: String&lt;br/&gt;- port: Integer&lt;br/&gt;- password: String&lt;/p&gt;&lt;hr size=&quot;1&quot;/&gt;&lt;p style=&quot;margin:0 0 0 4px;line-height:1.6;&quot;&gt;+ javaMailSender(): JavaMailSender&lt;/p&gt;" style="verticalAlign=top;align=left;overflow=fill;fontSize=14;fontFamily=Helvetica;html=1;rounded=0;shadow=0;comic=0;labelBackgroundColor=none;strokeWidth=1;" parent="1" vertex="1">
          <mxGeometry x="-619" y="9998" width="253" height="161" as="geometry" />
        </mxCell>
        <mxCell id="node57" value="&lt;p style=&quot;margin:0px;margin-top:4px;text-align:center;&quot;&gt;&lt;b&gt;UserApplication&lt;/b&gt;&lt;/p&gt;&lt;hr size=&quot;1&quot;/&gt;&lt;p style=&quot;margin:0 0 0 4px;line-height:1.6;&quot;&gt;+ main(String[]): void&lt;/p&gt;" style="verticalAlign=top;align=left;overflow=fill;fontSize=14;fontFamily=Helvetica;html=1;rounded=0;shadow=0;comic=0;labelBackgroundColor=none;strokeWidth=1;" parent="1" vertex="1">
          <mxGeometry x="-487" y="10372" width="174" height="68" as="geometry" />
        </mxCell>
        <mxCell id="node56" value="&lt;p style=&quot;margin:0px;margin-top:4px;text-align:center;&quot;&gt;&lt;i&gt;&amp;lt;&amp;lt;enumeration&amp;gt;&amp;gt;&lt;/i&gt;&lt;br/&gt;&lt;b&gt;UserBasicDetailType&lt;/b&gt;&lt;/p&gt;&lt;hr size=&quot;1&quot;/&gt;&lt;p style=&quot;margin:0 0 0 4px;line-height:1.6;&quot;&gt;+ STATE_REGION: &lt;br/&gt;+ COUNTRY: &lt;br/&gt;+ USERNAME: &lt;br/&gt;+ NAME: &lt;br/&gt;+ SURNAME: &lt;br/&gt;+ BAN_EXPIRY_TIME: &lt;br/&gt;+ ADDRESS: &lt;br/&gt;+ PHONE_NUMBER: &lt;br/&gt;+ IMAGE: &lt;br/&gt;+ STATUS: &lt;/p&gt;&lt;hr size=&quot;1&quot;/&gt;&lt;p style=&quot;margin:0 0 0 4px;line-height:1.6;&quot;&gt;+ values(): UserBasicDetailType[]&lt;br/&gt;+ valueOf(String): UserBasicDetailType&lt;/p&gt;" style="verticalAlign=top;align=left;overflow=fill;fontSize=14;fontFamily=Helvetica;html=1;rounded=0;shadow=0;comic=0;labelBackgroundColor=none;strokeWidth=1;" parent="1" vertex="1">
          <mxGeometry x="-952" y="9881" width="253" height="278" as="geometry" />
        </mxCell>
        <mxCell id="node11" value="&lt;p style=&quot;margin:0px;margin-top:4px;text-align:center;&quot;&gt;&lt;b&gt;UserController&lt;/b&gt;&lt;/p&gt;&lt;hr size=&quot;1&quot;/&gt;&lt;p style=&quot;margin:0 0 0 4px;line-height:1.6;&quot;&gt;- scheduledOperationsService: ScheduledOperationsService&lt;br/&gt;- userRestrictionsService: UserRestrictionsService&lt;br/&gt;- updateUserDetailsService: UpdateUserDetailsService&lt;br/&gt;- userActionService: UserActionService&lt;br/&gt;- log: Logger&lt;br/&gt;- getUserDetailsService: GetUserDetailsService&lt;br/&gt;- authenticationService: AuthenticationService&lt;/p&gt;&lt;hr size=&quot;1&quot;/&gt;&lt;p style=&quot;margin:0 0 0 4px;line-height:1.6;&quot;&gt;+ forgottenPasswordReset(ForgottenPasswordResetRequest): void&lt;br/&gt;+ auditUserAction(AuditUserActionRequest): void&lt;br/&gt;+ getUserDetails(Integer): ResponseEntity&amp;lt;GetUserDetailsResponse&amp;gt;&lt;br/&gt;+ login(LoginRequest): ResponseEntity&amp;lt;LoginResponse&amp;gt;&lt;br/&gt;+ emailReset(Integer, EmailResetRequest): void&lt;br/&gt;+ getSpecificUsersDetails(GetSpecificUsersDetailsRequest): ResponseEntity&amp;lt;GetSpecificUsersDetailsResponse&amp;gt;&lt;br/&gt;+ usernameReset(Integer, UsernameResetRequest): void&lt;br/&gt;+ register(RegisterRequest): ResponseEntity&amp;lt;RegisterResponse&amp;gt;&lt;br/&gt;+ getUserActions(Integer, Integer, String): ResponseEntity&amp;lt;GetUserActionsResponse&amp;gt;&lt;br/&gt;+ removeUserBan(Integer): void&lt;br/&gt;+ passwordReset(Integer, PasswordResetRequest): void&lt;br/&gt;+ getUserDetailsByUsername(String): ResponseEntity&amp;lt;GetUserDetailsResponse&amp;gt;&lt;br/&gt;+ banUser(Integer, Integer): void&lt;br/&gt;+ getUserAccountStatus(Integer): ResponseEntity&amp;lt;GetUserAccountStatusResponse&amp;gt;&lt;br/&gt;+ manualSecurityCodesExpire(): void&lt;br/&gt;+ oauth2login(Oauth2Request): ResponseEntity&amp;lt;Oauth2Response&amp;gt;&lt;br/&gt;+ updateBasicUserDetails(Integer, UpdateBasicUserDetailsRequest): void&lt;br/&gt;+ manualRemoveUsersBan(): void&lt;/p&gt;" style="verticalAlign=top;align=left;overflow=fill;fontSize=14;fontFamily=Helvetica;html=1;rounded=0;shadow=0;comic=0;labelBackgroundColor=none;strokeWidth=1;" parent="1" vertex="1">
          <mxGeometry x="-952" y="11580" width="735" height="641" as="geometry" />
        </mxCell>
        <mxCell id="node43" value="&lt;p style=&quot;margin:0px;margin-top:4px;text-align:center;&quot;&gt;&lt;i&gt;&amp;lt;&amp;lt;interface&amp;gt;&amp;gt;&lt;/i&gt;&lt;br/&gt;&lt;b&gt;UserPublicService&lt;/b&gt;&lt;/p&gt;&lt;hr size=&quot;1&quot;/&gt;" style="verticalAlign=top;align=left;overflow=fill;fontSize=14;fontFamily=Helvetica;html=1;rounded=0;shadow=0;comic=0;labelBackgroundColor=none;strokeWidth=1;" parent="1" vertex="1">
          <mxGeometry x="-193" y="11906" width="192" height="35" as="geometry" />
        </mxCell>
        <mxCell id="node60" value="&lt;p style=&quot;margin:0px;margin-top:4px;text-align:center;&quot;&gt;&lt;i&gt;&amp;lt;&amp;lt;interface&amp;gt;&amp;gt;&lt;/i&gt;&lt;br/&gt;&lt;b&gt;UserRepository&lt;/b&gt;&lt;/p&gt;&lt;hr size=&quot;1&quot;/&gt;&lt;p style=&quot;margin:0 0 0 4px;line-height:1.6;&quot;&gt;+ findUserByOauth2UserId(String): Optional&amp;lt;User&amp;gt;&lt;br/&gt;+ getUsernameStartingWith(String): Optional&amp;lt;List&amp;lt;String&amp;gt;&amp;gt;&lt;br/&gt;+ findUserByEmail(String): Optional&amp;lt;User&amp;gt;&lt;br/&gt;+ findUserByUsername(String): Optional&amp;lt;User&amp;gt;&lt;br/&gt;+ findAllByStatus(UserStatus): Optional&amp;lt;List&amp;lt;User&amp;gt;&amp;gt;&lt;/p&gt;" style="verticalAlign=top;align=left;overflow=fill;fontSize=14;fontFamily=Helvetica;html=1;rounded=0;shadow=0;comic=0;labelBackgroundColor=none;strokeWidth=1;" parent="1" vertex="1">
          <mxGeometry x="-66.5" y="11212" width="410" height="159" as="geometry" />
        </mxCell>
        <mxCell id="node10" value="&lt;p style=&quot;margin:0px;margin-top:4px;text-align:center;&quot;&gt;&lt;b&gt;UserRestrictionsServiceImpl&lt;/b&gt;&lt;/p&gt;&lt;hr size=&quot;1&quot;/&gt;&lt;p style=&quot;margin:0 0 0 4px;line-height:1.6;&quot;&gt;- log: Logger&lt;br/&gt;- exceptionFactory: ExceptionFactory&lt;br/&gt;- userRepository: UserRepository&lt;/p&gt;&lt;hr size=&quot;1&quot;/&gt;&lt;p style=&quot;margin:0 0 0 4px;line-height:1.6;&quot;&gt;+ removeUserBan(Integer): void&lt;br/&gt;+ banUser(Integer, Integer): void&lt;br/&gt;+ getUserAccountStatus(Integer): GetUserAccountStatusResponse&lt;/p&gt;" style="verticalAlign=top;align=left;overflow=fill;fontSize=14;fontFamily=Helvetica;html=1;rounded=0;shadow=0;comic=0;labelBackgroundColor=none;strokeWidth=1;" parent="1" vertex="1">
          <mxGeometry x="-154" y="12056" width="448" height="185" as="geometry" />
        </mxCell>
        <mxCell id="node44" value="&lt;p style=&quot;margin:0px;margin-top:4px;text-align:center;&quot;&gt;&lt;i&gt;&amp;lt;&amp;lt;enumeration&amp;gt;&amp;gt;&lt;/i&gt;&lt;br/&gt;&lt;b&gt;UserRole&lt;/b&gt;&lt;/p&gt;&lt;hr size=&quot;1&quot;/&gt;&lt;p style=&quot;margin:0 0 0 4px;line-height:1.6;&quot;&gt;+ ADMINISTRATOR: &lt;br/&gt;+ USER: &lt;br/&gt;+ OAUTH2_USER: &lt;/p&gt;&lt;hr size=&quot;1&quot;/&gt;&lt;p style=&quot;margin:0 0 0 4px;line-height:1.6;&quot;&gt;+ valueOf(String): UserRole&lt;br/&gt;+ values(): UserRole[]&lt;/p&gt;" style="verticalAlign=top;align=left;overflow=fill;fontSize=14;fontFamily=Helvetica;html=1;rounded=0;shadow=0;comic=0;labelBackgroundColor=none;strokeWidth=1;" parent="1" vertex="1">
          <mxGeometry x="-571" y="9776" width="158" height="131" as="geometry" />
        </mxCell>
        <mxCell id="node14" value="&lt;p style=&quot;margin:0px;margin-top:4px;text-align:center;&quot;&gt;&lt;i&gt;&amp;lt;&amp;lt;interface&amp;gt;&amp;gt;&lt;/i&gt;&lt;br&gt;&lt;b&gt;UserService&lt;/b&gt;&lt;/p&gt;&lt;hr size=&quot;1&quot;&gt;&lt;p style=&quot;margin:0 0 0 4px;line-height:1.6;&quot;&gt;+ getUserAccountStatus(Integer): ResponseEntity&amp;lt;GetUserAccountStatusResponse&amp;gt;&lt;br&gt;+ login(LoginRequest): ResponseEntity&amp;lt;LoginResponse&amp;gt;&lt;br&gt;+ manualSecurityCodesExpire(): void&lt;br&gt;+ updateBasicUserDetails(Integer, UpdateBasicUserDetailsRequest): void&lt;br&gt;+ emailReset(Integer, EmailResetRequest): void&lt;br&gt;+ manualRemoveUsersBan(): void&lt;br&gt;+ oauth2login(Oauth2Request): ResponseEntity&amp;lt;Oauth2Response&amp;gt;&lt;br&gt;+ getSpecificUsersDetails(GetSpecificUsersDetailsRequest): ResponseEntity&amp;lt;GetSpecificUsersDetailsResponse&amp;gt;&lt;br&gt;+ register(RegisterRequest): ResponseEntity&amp;lt;RegisterResponse&amp;gt;&lt;br&gt;+ removeUserBan(Integer): void&lt;br&gt;+ auditUserAction(AuditUserActionRequest): void&lt;br&gt;+ getUserDetails(Integer): ResponseEntity&amp;lt;GetUserDetailsResponse&amp;gt;&lt;br&gt;+ banUser(Integer, Integer): void&lt;br&gt;+ forgottenPasswordReset(ForgottenPasswordResetRequest): void&lt;br&gt;+ passwordReset(Integer, PasswordResetRequest): void&lt;br&gt;+ usernameReset(Integer, UsernameResetRequest): void&lt;br&gt;+ getUserDetailsByUsername(String): ResponseEntity&amp;lt;GetUserDetailsResponse&amp;gt;&lt;br&gt;+ getUserActions(Integer, Integer, String): ResponseEntity&amp;lt;GetUserActionsResponse&amp;gt;&lt;/p&gt;" style="verticalAlign=top;align=left;overflow=fill;fontSize=14;fontFamily=Helvetica;html=1;rounded=0;shadow=0;comic=0;labelBackgroundColor=none;strokeWidth=1;" parent="1" vertex="1">
          <mxGeometry x="-964" y="10498" width="724" height="462" as="geometry" />
        </mxCell>
        <mxCell id="node1" value="&lt;p style=&quot;margin:0px;margin-top:4px;text-align:center;&quot;&gt;&lt;i&gt;&amp;lt;&amp;lt;enumeration&amp;gt;&amp;gt;&lt;/i&gt;&lt;br/&gt;&lt;b&gt;UserStatus&lt;/b&gt;&lt;/p&gt;&lt;hr size=&quot;1&quot;/&gt;&lt;p style=&quot;margin:0 0 0 4px;line-height:1.6;&quot;&gt;+ ACTIVE: &lt;br/&gt;+ TEMPORARY_BANNED: &lt;br/&gt;+ PERMANENT_BANNED: &lt;/p&gt;&lt;hr size=&quot;1&quot;/&gt;&lt;p style=&quot;margin:0 0 0 4px;line-height:1.6;&quot;&gt;+ values(): UserStatus[]&lt;br/&gt;+ valueOf(String): UserStatus&lt;/p&gt;" style="verticalAlign=top;align=left;overflow=fill;fontSize=14;fontFamily=Helvetica;html=1;rounded=0;shadow=0;comic=0;labelBackgroundColor=none;strokeWidth=1;" parent="1" vertex="1">
          <mxGeometry x="397" y="9189" width="190" height="131" as="geometry" />
        </mxCell>
        <mxCell id="node42" value="&lt;p style=&quot;margin:0px;margin-top:4px;text-align:center;&quot;&gt;&lt;b&gt;UsernameResetRequest&lt;/b&gt;&lt;/p&gt;&lt;hr size=&quot;1&quot;/&gt;&lt;p style=&quot;margin:0 0 0 4px;line-height:1.6;&quot;&gt;- newUsername: String&lt;br/&gt;- password: String&lt;/p&gt;&lt;hr size=&quot;1&quot;/&gt;&lt;p style=&quot;margin:0 0 0 4px;line-height:1.6;&quot;&gt;+ equals(Object): boolean&lt;br/&gt;# canEqual(Object): boolean&lt;br/&gt;+ toString(): String&lt;br/&gt;+ setPassword(String): void&lt;br/&gt;+ setNewUsername(String): void&lt;br/&gt;+ hashCode(): int&lt;br/&gt;+ builder(): UsernameResetRequestBuilder&lt;br/&gt;+ getPassword(): String&lt;br/&gt;+ getNewUsername(): String&lt;/p&gt;" style="verticalAlign=top;align=left;overflow=fill;fontSize=14;fontFamily=Helvetica;html=1;rounded=0;shadow=0;comic=0;labelBackgroundColor=none;strokeWidth=1;" parent="1" vertex="1">
          <mxGeometry x="21" y="10923" width="291" height="91" as="geometry" />
        </mxCell>
        <mxCell id="edge18" value="" style="html=1;rounded=1;edgeStyle=orthogonalEdgeStyle;dashed=0;startArrow=diamondThinstartSize=12;endArrow=openThin;endSize=12;strokeColor=#595959;exitX=0.000;exitY=0.500;exitDx=0;exitDy=0;entryX=0.500;entryY=1.000;entryDx=0;entryDy=0;" parent="1" source="node37" target="node19" edge="1">
          <mxGeometry width="50" height="50" relative="1" as="geometry">
            <Array as="points">
              <mxPoint x="-298" y="8979" />
              <mxPoint x="-298" y="9126" />
              <mxPoint x="-505" y="9126" />
            </Array>
          </mxGeometry>
        </mxCell>
        <mxCell id="label113" value="actionType" style="edgeLabel;resizable=0;html=1;align=left;verticalAlign=top;strokeColor=default;" parent="edge18" vertex="1" connectable="0">
          <mxGeometry x="-505" y="9087" as="geometry" />
        </mxCell>
        <mxCell id="edge49" value="" style="html=1;rounded=1;edgeStyle=orthogonalEdgeStyle;dashed=0;startArrow=diamondThinstartSize=12;endArrow=openThin;endSize=12;strokeColor=#595959;exitX=0.500;exitY=1.000;exitDx=0;exitDy=0;entryX=0.500;entryY=1.000;entryDx=0;entryDy=0;" parent="1" source="node32" target="node19" edge="1">
          <mxGeometry width="50" height="50" relative="1" as="geometry">
            <Array as="points">
              <mxPoint x="492" y="9126" />
              <mxPoint x="-505" y="9126" />
            </Array>
          </mxGeometry>
        </mxCell>
        <mxCell id="label299" value="actionType" style="edgeLabel;resizable=0;html=1;align=left;verticalAlign=top;strokeColor=default;" parent="edge49" vertex="1" connectable="0">
          <mxGeometry x="-505" y="9090" as="geometry" />
        </mxCell>
        <mxCell id="edge23" value="" style="html=1;rounded=1;edgeStyle=orthogonalEdgeStyle;dashed=0;startArrow=diamondThinstartSize=12;endArrow=openThin;endSize=12;strokeColor=#595959;exitX=0.000;exitY=0.362;exitDx=0;exitDy=0;entryX=0.500;entryY=1.000;entryDx=0;entryDy=0;" parent="1" source="node4" target="node19" edge="1">
          <mxGeometry width="50" height="50" relative="1" as="geometry">
            <Array as="points">
              <mxPoint x="-298" y="9801" />
              <mxPoint x="-298" y="9126" />
              <mxPoint x="-505" y="9126" />
            </Array>
          </mxGeometry>
        </mxCell>
        <mxCell id="label143" value="actionType" style="edgeLabel;resizable=0;html=1;align=left;verticalAlign=top;strokeColor=default;" parent="edge23" vertex="1" connectable="0">
          <mxGeometry x="-505" y="9089" as="geometry" />
        </mxCell>
        <mxCell id="edge16" value="" style="html=1;rounded=1;edgeStyle=orthogonalEdgeStyle;dashed=0;startArrow=diamondThinstartSize=12;endArrow=openThin;endSize=12;strokeColor=#595959;exitX=0.500;exitY=1.000;exitDx=0;exitDy=0;entryX=0.500;entryY=0.000;entryDx=0;entryDy=0;" parent="1" source="node4" target="node26" edge="1">
          <mxGeometry width="50" height="50" relative="1" as="geometry">
            <Array as="points">
              <mxPoint x="304" y="9948" />
              <mxPoint x="1474" y="9948" />
              <mxPoint x="1474" y="8884" />
              <mxPoint x="180" y="8884" />
            </Array>
          </mxGeometry>
        </mxCell>
        <mxCell id="label101" value="addProductAction" style="edgeLabel;resizable=0;html=1;align=left;verticalAlign=top;strokeColor=default;" parent="edge16" vertex="1" connectable="0">
          <mxGeometry x="80" y="8910" as="geometry" />
        </mxCell>
        <mxCell id="edge10" value="" style="html=1;rounded=1;edgeStyle=orthogonalEdgeStyle;dashed=0;startArrow=diamondThinstartSize=12;endArrow=openThin;endSize=12;strokeColor=#595959;exitX=0.000;exitY=0.156;exitDx=0;exitDy=0;entryX=0.137;entryY=1.001;entryDx=0;entryDy=0;" parent="1" source="node4" target="node33" edge="1">
          <mxGeometry width="50" height="50" relative="1" as="geometry">
            <Array as="points">
              <mxPoint x="-589" y="9759" />
            </Array>
          </mxGeometry>
        </mxCell>
        <mxCell id="label65" value="adminBanUserAction" style="edgeLabel;resizable=0;html=1;align=left;verticalAlign=top;strokeColor=default;" parent="edge10" vertex="1" connectable="0">
          <mxGeometry x="-637" y="9477" as="geometry" />
        </mxCell>
        <mxCell id="edge26" value="" style="html=1;rounded=1;edgeStyle=orthogonalEdgeStyle;dashed=0;startArrow=diamondThinstartSize=12;endArrow=openThin;endSize=12;strokeColor=#595959;exitX=1.000;exitY=0.028;exitDx=0;exitDy=0;entryX=0.500;entryY=1.001;entryDx=0;entryDy=0;" parent="1" source="node4" target="node45" edge="1">
          <mxGeometry width="50" height="50" relative="1" as="geometry">
            <Array as="points">
              <mxPoint x="807" y="9732" />
              <mxPoint x="807" y="9584" />
              <mxPoint x="669" y="9584" />
              <mxPoint x="669" y="9490" />
              <mxPoint x="255" y="9490" />
            </Array>
          </mxGeometry>
        </mxCell>
        <mxCell id="label161" value="adminDeleteProduct" style="edgeLabel;resizable=0;html=1;align=left;verticalAlign=top;strokeColor=default;" parent="edge26" vertex="1" connectable="0">
          <mxGeometry x="255" y="9452" as="geometry" />
        </mxCell>
        <mxCell id="edge34" value="" style="html=1;rounded=1;edgeStyle=orthogonalEdgeStyle;dashed=0;startArrow=diamondThinstartSize=12;endArrow=openThin;endSize=12;strokeColor=#595959;exitX=0.500;exitY=0.000;exitDx=0;exitDy=0;entryX=0.000;entryY=0.500;entryDx=0;entryDy=0;" parent="1" source="node4" target="node20" edge="1">
          <mxGeometry width="50" height="50" relative="1" as="geometry">
            <Array as="points">
              <mxPoint x="304" y="9666" />
            </Array>
          </mxGeometry>
        </mxCell>
        <mxCell id="label209" value="adminRemoveUserBan" style="edgeLabel;resizable=0;html=1;align=left;verticalAlign=top;strokeColor=default;" parent="edge34" vertex="1" connectable="0">
          <mxGeometry x="450" y="9723" as="geometry" />
        </mxCell>
        <mxCell id="edge32" value="" style="html=1;rounded=1;edgeStyle=orthogonalEdgeStyle;dashed=0;startArrow=diamondThinstartSize=12;endArrow=openThin;endSize=12;strokeColor=#595959;exitX=0.000;exitY=0.082;exitDx=0;exitDy=0;entryX=0.000;entryY=0.500;entryDx=0;entryDy=0;" parent="1" source="node4" target="node52" edge="1">
          <mxGeometry width="50" height="50" relative="1" as="geometry">
            <Array as="points">
              <mxPoint x="-262" y="9744" />
              <mxPoint x="-262" y="9467" />
            </Array>
          </mxGeometry>
        </mxCell>
        <mxCell id="label197" value="updateAddProductAction" style="edgeLabel;resizable=0;html=1;align=left;verticalAlign=top;strokeColor=default;" parent="edge32" vertex="1" connectable="0">
          <mxGeometry x="-314" y="9526" as="geometry" />
        </mxCell>
        <mxCell id="edge35" value="" style="html=1;rounded=1;edgeStyle=orthogonalEdgeStyle;dashed=0;startArrow=diamondThinstartSize=12;endArrow=openThin;endSize=12;strokeColor=#595959;exitX=0.500;exitY=1.000;exitDx=0;exitDy=0;entryX=0.348;entryY=1.000;entryDx=0;entryDy=0;" parent="1" source="node46" target="node60" edge="1">
          <mxGeometry width="50" height="50" relative="1" as="geometry">
            <Array as="points">
              <mxPoint x="1169" y="11404" />
              <mxPoint x="497" y="11404" />
            </Array>
          </mxGeometry>
        </mxCell>
        <mxCell id="label215" value="userRepository" style="edgeLabel;resizable=0;html=1;align=left;verticalAlign=top;strokeColor=default;" parent="edge35" vertex="1" connectable="0">
          <mxGeometry x="497" y="11361" as="geometry" />
        </mxCell>
        <mxCell id="edge4" value="" style="html=1;rounded=1;edgeStyle=orthogonalEdgeStyle;dashed=1;startArrow=none;endArrow=block;endSize=12;strokeColor=#008200;exitX=1.000;exitY=0.460;exitDx=0;exitDy=0;entryX=1.000;entryY=0.562;entryDx=0;entryDy=0;" parent="1" source="node36" target="node25" edge="1">
          <mxGeometry width="50" height="50" relative="1" as="geometry">
            <Array as="points">
              <mxPoint x="1489" y="12085" />
              <mxPoint x="1489" y="9820" />
              <mxPoint x="557" y="9820" />
              <mxPoint x="557" y="10086" />
            </Array>
          </mxGeometry>
        </mxCell>
        <mxCell id="edge41" value="" style="html=1;rounded=1;edgeStyle=orthogonalEdgeStyle;dashed=0;startArrow=diamondThinstartSize=12;endArrow=openThin;endSize=12;strokeColor=#595959;exitX=1.000;exitY=0.420;exitDx=0;exitDy=0;entryX=1.000;entryY=0.500;entryDx=0;entryDy=0;" parent="1" source="node36" target="node22" edge="1">
          <mxGeometry width="50" height="50" relative="1" as="geometry">
            <Array as="points">
              <mxPoint x="1474" y="12070" />
              <mxPoint x="1474" y="10200" />
            </Array>
          </mxGeometry>
        </mxCell>
        <mxCell id="label251" value="jwtService" style="edgeLabel;resizable=0;html=1;align=left;verticalAlign=top;strokeColor=default;" parent="edge41" vertex="1" connectable="0">
          <mxGeometry x="1391" y="10161" as="geometry" />
        </mxCell>
        <mxCell id="edge33" value="" style="html=1;rounded=1;edgeStyle=orthogonalEdgeStyle;dashed=0;startArrow=diamondThinstartSize=12;endArrow=openThin;endSize=12;strokeColor=#595959;exitX=1.000;exitY=0.500;exitDx=0;exitDy=0;entryX=1.000;entryY=0.500;entryDx=0;entryDy=0;" parent="1" source="node36" target="node63" edge="1">
          <mxGeometry width="50" height="50" relative="1" as="geometry">
            <Array as="points">
              <mxPoint x="1428" y="12100" />
              <mxPoint x="1428" y="11825" />
              <mxPoint x="1459" y="11825" />
              <mxPoint x="1459" y="11033" />
            </Array>
          </mxGeometry>
        </mxCell>
        <mxCell id="label203" value="securityCodeRepository" style="edgeLabel;resizable=0;html=1;align=left;verticalAlign=top;strokeColor=default;" parent="edge33" vertex="1" connectable="0">
          <mxGeometry x="1392" y="11190" as="geometry" />
        </mxCell>
        <mxCell id="edge22" value="" style="html=1;rounded=1;edgeStyle=orthogonalEdgeStyle;dashed=0;startArrow=diamondThinstartSize=12;endArrow=openThin;endSize=12;strokeColor=#595959;exitX=0.000;exitY=0.460;exitDx=0;exitDy=0;entryX=0.000;entryY=0.500;entryDx=0;entryDy=0;" parent="1" source="node36" target="node64" edge="1">
          <mxGeometry width="50" height="50" relative="1" as="geometry">
            <Array as="points">
              <mxPoint x="923" y="12085" />
              <mxPoint x="923" y="11974" />
              <mxPoint x="32" y="11974" />
              <mxPoint x="32" y="11808" />
              <mxPoint x="-185" y="11808" />
              <mxPoint x="-185" y="10879" />
            </Array>
          </mxGeometry>
        </mxCell>
        <mxCell id="label137" value="securityCodeService" style="edgeLabel;resizable=0;html=1;align=left;verticalAlign=top;strokeColor=default;" parent="edge22" vertex="1" connectable="0">
          <mxGeometry x="466" y="10927" as="geometry" />
        </mxCell>
        <mxCell id="edge37" value="" style="html=1;rounded=1;edgeStyle=orthogonalEdgeStyle;dashed=0;startArrow=diamondThinstartSize=12;endArrow=openThin;endSize=12;strokeColor=#595959;exitX=0.000;exitY=0.500;exitDx=0;exitDy=0;entryX=0.348;entryY=1.000;entryDx=0;entryDy=0;" parent="1" source="node36" target="node60" edge="1">
          <mxGeometry width="50" height="50" relative="1" as="geometry">
            <Array as="points">
              <mxPoint x="738" y="12100" />
              <mxPoint x="738" y="11989" />
              <mxPoint x="55" y="11989" />
              <mxPoint x="55" y="11696" />
              <mxPoint x="497" y="11696" />
            </Array>
          </mxGeometry>
        </mxCell>
        <mxCell id="label227" value="userRepository" style="edgeLabel;resizable=0;html=1;align=left;verticalAlign=top;strokeColor=default;" parent="edge37" vertex="1" connectable="0">
          <mxGeometry x="537" y="11376" as="geometry" />
        </mxCell>
        <mxCell id="edge11" value="" style="html=1;rounded=1;edgeStyle=orthogonalEdgeStyle;dashed=0;startArrow=diamondThinstartSize=12;endArrow=openThin;endSize=12;strokeColor=#595959;exitX=0.000;exitY=0.067;exitDx=0;exitDy=0;entryX=0.000;entryY=0.121;entryDx=0;entryDy=0;" parent="1" source="node38" target="node23" edge="1">
          <mxGeometry width="50" height="50" relative="1" as="geometry">
            <Array as="points">
              <mxPoint x="-316" y="10239" />
              <mxPoint x="-316" y="9377" />
            </Array>
          </mxGeometry>
        </mxCell>
        <mxCell id="label71" value="processPhase" style="edgeLabel;resizable=0;html=1;align=left;verticalAlign=top;strokeColor=default;" parent="edge11" vertex="1" connectable="0">
          <mxGeometry x="403" y="9410" as="geometry" />
        </mxCell>
        <mxCell id="edge6" value="" style="html=1;rounded=1;edgeStyle=orthogonalEdgeStyle;dashed=1;startArrow=none;endArrow=block;endSize=12;strokeColor=#008200;exitX=0.458;exitY=0.000;exitDx=0;exitDy=0;entryX=0.500;entryY=1.001;entryDx=0;entryDy=0;" parent="1" source="node41" target="node15" edge="1">
          <mxGeometry width="50" height="50" relative="1" as="geometry">
            <Array as="points" />
          </mxGeometry>
        </mxCell>
        <mxCell id="edge13" value="" style="html=1;rounded=1;edgeStyle=orthogonalEdgeStyle;dashed=0;startArrow=diamondThinstartSize=12;endArrow=openThin;endSize=12;strokeColor=#595959;exitX=0.915;exitY=1.000;exitDx=0;exitDy=0;entryX=0.315;entryY=0.000;entryDx=0;entryDy=0;" parent="1" source="node51" target="node2" edge="1">
          <mxGeometry width="50" height="50" relative="1" as="geometry">
            <Array as="points" />
          </mxGeometry>
        </mxCell>
        <mxCell id="label78" value="" style="edgeLabel;resizable=0;html=1;align=left;verticalAlign=top;strokeColor=default;" parent="edge13" vertex="1" connectable="0">
          <mxGeometry x="1090" y="9609" as="geometry" />
        </mxCell>
        <mxCell id="label82" value="" style="edgeLabel;resizable=0;html=1;align=left;verticalAlign=top;strokeColor=default;" parent="edge13" vertex="1" connectable="0">
          <mxGeometry x="1090" y="9290" as="geometry" />
        </mxCell>
        <mxCell id="label83" value="processPhase" style="edgeLabel;resizable=0;html=1;align=left;verticalAlign=top;strokeColor=default;" parent="edge13" vertex="1" connectable="0">
          <mxGeometry x="1005" y="9609" as="geometry" />
        </mxCell>
        <mxCell id="edge48" value="" style="html=1;rounded=1;edgeStyle=orthogonalEdgeStyle;dashed=0;startArrow=diamondThinstartSize=12;endArrow=openThin;endSize=12;strokeColor=#595959;exitX=0.500;exitY=1.000;exitDx=0;exitDy=0;entryX=0.000;entryY=0.500;entryDx=0;entryDy=0;" parent="1" source="node48" target="node1" edge="1">
          <mxGeometry width="50" height="50" relative="1" as="geometry">
            <Array as="points">
              <mxPoint x="-119" y="9305" />
              <mxPoint x="314" y="9305" />
              <mxPoint x="314" y="9241" />
            </Array>
          </mxGeometry>
        </mxCell>
        <mxCell id="label293" value="userStatus" style="edgeLabel;resizable=0;html=1;align=left;verticalAlign=top;strokeColor=default;" parent="edge48" vertex="1" connectable="0">
          <mxGeometry x="327" y="9263" as="geometry" />
        </mxCell>
        <mxCell id="edge25" value="" style="html=1;rounded=1;edgeStyle=orthogonalEdgeStyle;dashed=0;startArrow=diamondThinstartSize=12;endArrow=openThin;endSize=12;strokeColor=#595959;exitX=1.000;exitY=0.500;exitDx=0;exitDy=0;entryX=1.000;entryY=0.025;entryDx=0;entryDy=0;" parent="1" source="node18" target="node32" edge="1">
          <mxGeometry width="50" height="50" relative="1" as="geometry">
            <Array as="points">
              <mxPoint x="1459" y="9435" />
              <mxPoint x="1459" y="8942" />
            </Array>
          </mxGeometry>
        </mxCell>
        <mxCell id="label150" value="" style="edgeLabel;resizable=0;html=1;align=left;verticalAlign=top;strokeColor=default;" parent="edge25" vertex="1" connectable="0">
          <mxGeometry x="1445" y="8937" as="geometry" />
        </mxCell>
        <mxCell id="label154" value="*" style="edgeLabel;resizable=0;html=1;align=left;verticalAlign=top;strokeColor=default;" parent="edge25" vertex="1" connectable="0">
          <mxGeometry x="634" y="8936" as="geometry" />
        </mxCell>
        <mxCell id="label155" value="userActions" style="edgeLabel;resizable=0;html=1;align=left;verticalAlign=top;strokeColor=default;" parent="edge25" vertex="1" connectable="0">
          <mxGeometry x="595" y="8897" as="geometry" />
        </mxCell>
        <mxCell id="edge0" value="" style="html=1;rounded=1;edgeStyle=orthogonalEdgeStyle;dashed=1;startArrow=none;endArrow=block;endSize=12;strokeColor=#008200;exitX=0.524;exitY=0.000;exitDx=0;exitDy=0;entryX=0.934;entryY=1.000;entryDx=0;entryDy=0;" parent="1" source="node28" target="node6" edge="1">
          <mxGeometry width="50" height="50" relative="1" as="geometry">
            <Array as="points" />
          </mxGeometry>
        </mxCell>
        <mxCell id="edge29" value="" style="html=1;rounded=1;edgeStyle=orthogonalEdgeStyle;dashed=0;startArrow=diamondThinstartSize=12;endArrow=openThin;endSize=12;strokeColor=#595959;exitX=0.500;exitY=0.000;exitDx=0;exitDy=0;entryX=0.348;entryY=1.000;entryDx=0;entryDy=0;" parent="1" source="node28" target="node60" edge="1">
          <mxGeometry width="50" height="50" relative="1" as="geometry">
            <Array as="points">
              <mxPoint x="396" y="11696" />
              <mxPoint x="497" y="11696" />
            </Array>
          </mxGeometry>
        </mxCell>
        <mxCell id="label174" value="" style="edgeLabel;resizable=0;html=1;align=left;verticalAlign=top;strokeColor=default;" parent="edge29" vertex="1" connectable="0">
          <mxGeometry x="446" y="11361" as="geometry" />
        </mxCell>
        <mxCell id="label179" value="userRepository" style="edgeLabel;resizable=0;html=1;align=left;verticalAlign=top;strokeColor=default;" parent="edge29" vertex="1" connectable="0">
          <mxGeometry x="497" y="11376" as="geometry" />
        </mxCell>
        <mxCell id="edge38" value="" style="html=1;rounded=1;edgeStyle=orthogonalEdgeStyle;dashed=0;startArrow=diamondThinstartSize=12;endArrow=openThin;endSize=12;strokeColor=#595959;exitX=1.000;exitY=0.448;exitDx=0;exitDy=0;entryX=1.000;entryY=0.500;entryDx=0;entryDy=0;" parent="1" source="node61" target="node31" edge="1">
          <mxGeometry width="50" height="50" relative="1" as="geometry">
            <Array as="points">
              <mxPoint x="-329" y="9601" />
              <mxPoint x="-329" y="9212" />
            </Array>
          </mxGeometry>
        </mxCell>
        <mxCell id="label233" value="processPhase" style="edgeLabel;resizable=0;html=1;align=left;verticalAlign=top;strokeColor=default;" parent="edge38" vertex="1" connectable="0">
          <mxGeometry x="-389" y="9160" as="geometry" />
        </mxCell>
        <mxCell id="edge9" value="" style="html=1;rounded=1;edgeStyle=orthogonalEdgeStyle;dashed=1;startArrow=none;endArrow=block;endSize=12;strokeColor=#008200;exitX=0.457;exitY=1.000;exitDx=0;exitDy=0;entryX=0.000;entryY=0.792;entryDx=0;entryDy=0;" parent="1" source="node13" target="node30" edge="1">
          <mxGeometry width="50" height="50" relative="1" as="geometry">
            <Array as="points">
              <mxPoint x="528" y="12336" />
              <mxPoint x="-982" y="12336" />
              <mxPoint x="-982" y="10321" />
            </Array>
          </mxGeometry>
        </mxCell>
        <mxCell id="edge15" value="" style="html=1;rounded=1;edgeStyle=orthogonalEdgeStyle;dashed=0;startArrow=diamondThinstartSize=12;endArrow=openThin;endSize=12;strokeColor=#595959;exitX=0.500;exitY=1.000;exitDx=0;exitDy=0;entryX=1.000;entryY=0.500;entryDx=0;entryDy=0;" parent="1" source="node13" target="node63" edge="1">
          <mxGeometry width="50" height="50" relative="1" as="geometry">
            <Array as="points">
              <mxPoint x="543" y="12306" />
              <mxPoint x="1428" y="12306" />
              <mxPoint x="1428" y="11825" />
              <mxPoint x="1459" y="11825" />
              <mxPoint x="1459" y="11033" />
            </Array>
          </mxGeometry>
        </mxCell>
        <mxCell id="label95" value="securityCodeRepository" style="edgeLabel;resizable=0;html=1;align=left;verticalAlign=top;strokeColor=default;" parent="edge15" vertex="1" connectable="0">
          <mxGeometry x="1392" y="10955" as="geometry" />
        </mxCell>
        <mxCell id="edge42" value="" style="html=1;rounded=1;edgeStyle=orthogonalEdgeStyle;dashed=0;startArrow=diamondThinstartSize=12;endArrow=openThin;endSize=12;strokeColor=#595959;exitX=0.500;exitY=0.000;exitDx=0;exitDy=0;entryX=0.348;entryY=1.000;entryDx=0;entryDy=0;" parent="1" source="node13" target="node60" edge="1">
          <mxGeometry width="50" height="50" relative="1" as="geometry">
            <Array as="points">
              <mxPoint x="543" y="11989" />
              <mxPoint x="55" y="11989" />
              <mxPoint x="55" y="11696" />
              <mxPoint x="497" y="11696" />
            </Array>
          </mxGeometry>
        </mxCell>
        <mxCell id="label252" value="" style="edgeLabel;resizable=0;html=1;align=left;verticalAlign=top;strokeColor=default;" parent="edge42" vertex="1" connectable="0">
          <mxGeometry x="486" y="11361" as="geometry" />
        </mxCell>
        <mxCell id="label257" value="userRepository" style="edgeLabel;resizable=0;html=1;align=left;verticalAlign=top;strokeColor=default;" parent="edge42" vertex="1" connectable="0">
          <mxGeometry x="537" y="11361" as="geometry" />
        </mxCell>
        <mxCell id="edge21" value="" style="html=1;rounded=1;edgeStyle=orthogonalEdgeStyle;dashed=0;startArrow=diamondThinstartSize=12;endArrow=openThin;endSize=12;strokeColor=#595959;exitX=1.000;exitY=0.500;exitDx=0;exitDy=0;entryX=0.500;entryY=1.000;entryDx=0;entryDy=0;" parent="1" source="node27" target="node5" edge="1">
          <mxGeometry width="50" height="50" relative="1" as="geometry">
            <Array as="points">
              <mxPoint x="1105" y="9459" />
              <mxPoint x="1105" y="9315" />
              <mxPoint x="1292" y="9315" />
            </Array>
          </mxGeometry>
        </mxCell>
        <mxCell id="label126" value="" style="edgeLabel;resizable=0;html=1;align=left;verticalAlign=top;strokeColor=default;" parent="edge21" vertex="1" connectable="0">
          <mxGeometry x="1281" y="9075" as="geometry" />
        </mxCell>
        <mxCell id="label130" value="" style="edgeLabel;resizable=0;html=1;align=left;verticalAlign=top;strokeColor=default;" parent="edge21" vertex="1" connectable="0">
          <mxGeometry x="1109" y="9421" as="geometry" />
        </mxCell>
        <mxCell id="label131" value="codeType" style="edgeLabel;resizable=0;html=1;align=left;verticalAlign=top;strokeColor=default;" parent="edge21" vertex="1" connectable="0">
          <mxGeometry x="1292" y="9075" as="geometry" />
        </mxCell>
        <mxCell id="edge30" value="" style="html=1;rounded=1;edgeStyle=orthogonalEdgeStyle;dashed=0;startArrow=diamondThinstartSize=12;endArrow=openThin;endSize=12;strokeColor=#595959;exitX=0.000;exitY=0.428;exitDx=0;exitDy=0;entryX=0.000;entryY=0.500;entryDx=0;entryDy=0;" parent="1" source="node8" target="node15" edge="1">
          <mxGeometry width="50" height="50" relative="1" as="geometry">
            <Array as="points">
              <mxPoint x="1003" y="10864" />
              <mxPoint x="1003" y="10515" />
            </Array>
          </mxGeometry>
        </mxCell>
        <mxCell id="label185" value="emailSenderService" style="edgeLabel;resizable=0;html=1;align=left;verticalAlign=top;strokeColor=default;" parent="edge30" vertex="1" connectable="0">
          <mxGeometry x="972" y="10562" as="geometry" />
        </mxCell>
        <mxCell id="edge17" value="" style="html=1;rounded=1;edgeStyle=orthogonalEdgeStyle;dashed=0;startArrow=diamondThinstartSize=12;endArrow=openThin;endSize=12;strokeColor=#595959;exitX=1.000;exitY=0.500;exitDx=0;exitDy=0;entryX=1.000;entryY=0.500;entryDx=0;entryDy=0;" parent="1" source="node8" target="node63" edge="1">
          <mxGeometry width="50" height="50" relative="1" as="geometry">
            <Array as="points">
              <mxPoint x="1459" y="10879" />
              <mxPoint x="1459" y="11033" />
            </Array>
          </mxGeometry>
        </mxCell>
        <mxCell id="label107" value="securityCodeRepository" style="edgeLabel;resizable=0;html=1;align=left;verticalAlign=top;strokeColor=default;" parent="edge17" vertex="1" connectable="0">
          <mxGeometry x="1019" y="11023" as="geometry" />
        </mxCell>
        <mxCell id="edge7" value="" style="html=1;rounded=1;edgeStyle=orthogonalEdgeStyle;dashed=1;startArrow=none;endArrow=block;endSize=12;strokeColor=#008200;exitX=0.000;exitY=0.500;exitDx=0;exitDy=0;entryX=1.000;entryY=0.500;entryDx=0;entryDy=0;" parent="1" source="node8" target="node64" edge="1">
          <mxGeometry width="50" height="50" relative="1" as="geometry">
            <Array as="points" />
          </mxGeometry>
        </mxCell>
        <mxCell id="edge40" value="" style="html=1;rounded=1;edgeStyle=orthogonalEdgeStyle;dashed=0;startArrow=diamondThinstartSize=12;endArrow=openThin;endSize=12;strokeColor=#595959;exitX=0.981;exitY=0.000;exitDx=0;exitDy=0;entryX=0.500;entryY=1.000;entryDx=0;entryDy=0;" parent="1" source="node47" target="node5" edge="1">
          <mxGeometry width="50" height="50" relative="1" as="geometry">
            <Array as="points">
              <mxPoint x="1354" y="9554" />
              <mxPoint x="1105" y="9554" />
              <mxPoint x="1105" y="9315" />
              <mxPoint x="1292" y="9315" />
            </Array>
          </mxGeometry>
        </mxCell>
        <mxCell id="label240" value="" style="edgeLabel;resizable=0;html=1;align=left;verticalAlign=top;strokeColor=default;" parent="edge40" vertex="1" connectable="0">
          <mxGeometry x="1281" y="9080" as="geometry" />
        </mxCell>
        <mxCell id="label244" value="" style="edgeLabel;resizable=0;html=1;align=left;verticalAlign=top;strokeColor=default;" parent="edge40" vertex="1" connectable="0">
          <mxGeometry x="1281" y="9306" as="geometry" />
        </mxCell>
        <mxCell id="label245" value="securityCodeType" style="edgeLabel;resizable=0;html=1;align=left;verticalAlign=top;strokeColor=default;" parent="edge40" vertex="1" connectable="0">
          <mxGeometry x="1292" y="9080" as="geometry" />
        </mxCell>
        <mxCell id="edge27" value="" style="html=1;rounded=1;edgeStyle=orthogonalEdgeStyle;dashed=0;startArrow=diamondThinstartSize=12;endArrow=openThin;endSize=12;strokeColor=#595959;exitX=0.312;exitY=0.001;exitDx=0;exitDy=0;entryX=0.500;entryY=1.000;entryDx=0;entryDy=0;" parent="1" source="node49" target="node56" edge="1">
          <mxGeometry width="50" height="50" relative="1" as="geometry">
            <Array as="points" />
          </mxGeometry>
        </mxCell>
        <mxCell id="label166" value="*" style="edgeLabel;resizable=0;html=1;align=left;verticalAlign=top;strokeColor=default;" parent="edge27" vertex="1" connectable="0">
          <mxGeometry x="-834" y="10164" as="geometry" />
        </mxCell>
        <mxCell id="label167" value="userDetails" style="edgeLabel;resizable=0;html=1;align=left;verticalAlign=top;strokeColor=default;" parent="edge27" vertex="1" connectable="0">
          <mxGeometry x="-825" y="10164" as="geometry" />
        </mxCell>
        <mxCell id="edge46" value="" style="html=1;rounded=1;edgeStyle=orthogonalEdgeStyle;dashed=0;startArrow=diamondThinstartSize=12;endArrow=openThin;endSize=12;strokeColor=#595959;exitX=1.000;exitY=0.500;exitDx=0;exitDy=0;entryX=1.000;entryY=0.500;entryDx=0;entryDy=0;" parent="1" source="node65" target="node63" edge="1">
          <mxGeometry width="50" height="50" relative="1" as="geometry">
            <Array as="points">
              <mxPoint x="1428" y="11737" />
              <mxPoint x="1428" y="11825" />
              <mxPoint x="1459" y="11825" />
              <mxPoint x="1459" y="11033" />
            </Array>
          </mxGeometry>
        </mxCell>
        <mxCell id="label276" value="" style="edgeLabel;resizable=0;html=1;align=left;verticalAlign=top;strokeColor=default;" parent="edge46" vertex="1" connectable="0">
          <mxGeometry x="977" y="11028" as="geometry" />
        </mxCell>
        <mxCell id="label281" value="securityCodeRepository" style="edgeLabel;resizable=0;html=1;align=left;verticalAlign=top;strokeColor=default;" parent="edge46" vertex="1" connectable="0">
          <mxGeometry x="962" y="10955" as="geometry" />
        </mxCell>
        <mxCell id="edge43" value="" style="html=1;rounded=1;edgeStyle=orthogonalEdgeStyle;dashed=0;startArrow=diamondThinstartSize=12;endArrow=openThin;endSize=12;strokeColor=#595959;exitX=0.000;exitY=0.549;exitDx=0;exitDy=0;entryX=0.000;entryY=0.500;entryDx=0;entryDy=0;" parent="1" source="node65" target="node64" edge="1">
          <mxGeometry width="50" height="50" relative="1" as="geometry">
            <Array as="points">
              <mxPoint x="904" y="11752" />
              <mxPoint x="904" y="11974" />
              <mxPoint x="32" y="11974" />
              <mxPoint x="32" y="11808" />
              <mxPoint x="-185" y="11808" />
              <mxPoint x="-185" y="10879" />
            </Array>
          </mxGeometry>
        </mxCell>
        <mxCell id="label263" value="securityCodeService" style="edgeLabel;resizable=0;html=1;align=left;verticalAlign=top;strokeColor=default;" parent="edge43" vertex="1" connectable="0">
          <mxGeometry x="-203" y="11187" as="geometry" />
        </mxCell>
        <mxCell id="edge5" value="" style="html=1;rounded=1;edgeStyle=orthogonalEdgeStyle;dashed=1;startArrow=none;endArrow=block;endSize=12;strokeColor=#008200;exitX=0.016;exitY=0.000;exitDx=0;exitDy=0;entryX=0.899;entryY=1.000;entryDx=0;entryDy=0;" parent="1" source="node65" target="node50" edge="1">
          <mxGeometry width="50" height="50" relative="1" as="geometry">
            <Array as="points" />
          </mxGeometry>
        </mxCell>
        <mxCell id="edge39" value="" style="html=1;rounded=1;edgeStyle=orthogonalEdgeStyle;dashed=0;startArrow=diamondThinstartSize=12;endArrow=openThin;endSize=12;strokeColor=#595959;exitX=0.000;exitY=0.500;exitDx=0;exitDy=0;entryX=0.348;entryY=1.000;entryDx=0;entryDy=0;" parent="1" source="node65" target="node60" edge="1">
          <mxGeometry width="50" height="50" relative="1" as="geometry">
            <Array as="points">
              <mxPoint x="735" y="11737" />
              <mxPoint x="735" y="11696" />
              <mxPoint x="497" y="11696" />
            </Array>
          </mxGeometry>
        </mxCell>
        <mxCell id="label239" value="userRepository" style="edgeLabel;resizable=0;html=1;align=left;verticalAlign=top;strokeColor=default;" parent="edge39" vertex="1" connectable="0">
          <mxGeometry x="537" y="11376" as="geometry" />
        </mxCell>
        <mxCell id="edge44" value="" style="html=1;rounded=1;edgeStyle=orthogonalEdgeStyle;dashed=0;startArrow=diamondThinstartSize=12;endArrow=openThin;endSize=12;strokeColor=#595959;exitX=1.000;exitY=0.471;exitDx=0;exitDy=0;entryX=0.500;entryY=0.001;entryDx=0;entryDy=0;" parent="1" source="node12" target="node7" edge="1">
          <mxGeometry width="50" height="50" relative="1" as="geometry">
            <Array as="points">
              <mxPoint x="212" y="9111" />
            </Array>
          </mxGeometry>
        </mxCell>
        <mxCell id="label264" value="" style="edgeLabel;resizable=0;html=1;align=left;verticalAlign=top;strokeColor=default;" parent="edge44" vertex="1" connectable="0">
          <mxGeometry x="212" y="9171" as="geometry" />
        </mxCell>
        <mxCell id="label269" value="authProvider" style="edgeLabel;resizable=0;html=1;align=left;verticalAlign=top;strokeColor=default;" parent="edge44" vertex="1" connectable="0">
          <mxGeometry x="139" y="9171" as="geometry" />
        </mxCell>
        <mxCell id="edge45" value="" style="html=1;rounded=1;edgeStyle=orthogonalEdgeStyle;dashed=0;startArrow=diamondThinstartSize=12;endArrow=openThin;endSize=12;strokeColor=#595959;exitX=0.000;exitY=0.500;exitDx=0;exitDy=0;entryX=0.000;entryY=0.500;entryDx=0;entryDy=0;" parent="1" source="node12" target="node44" edge="1">
          <mxGeometry width="50" height="50" relative="1" as="geometry">
            <Array as="points">
              <mxPoint x="-982" y="9124" />
              <mxPoint x="-982" y="9829" />
            </Array>
          </mxGeometry>
        </mxCell>
        <mxCell id="label275" value="userRole" style="edgeLabel;resizable=0;html=1;align=left;verticalAlign=top;strokeColor=default;" parent="edge45" vertex="1" connectable="0">
          <mxGeometry x="-631" y="9846" as="geometry" />
        </mxCell>
        <mxCell id="edge31" value="" style="html=1;rounded=1;edgeStyle=orthogonalEdgeStyle;dashed=0;startArrow=diamondThinstartSize=12;endArrow=openThin;endSize=12;strokeColor=#595959;exitX=1.000;exitY=0.505;exitDx=0;exitDy=0;entryX=0.000;entryY=0.500;entryDx=0;entryDy=0;" parent="1" source="node12" target="node1" edge="1">
          <mxGeometry width="50" height="50" relative="1" as="geometry">
            <Array as="points">
              <mxPoint x="-643" y="9126" />
              <mxPoint x="-643" y="9305" />
              <mxPoint x="314" y="9305" />
              <mxPoint x="314" y="9241" />
            </Array>
          </mxGeometry>
        </mxCell>
        <mxCell id="label191" value="status" style="edgeLabel;resizable=0;html=1;align=left;verticalAlign=top;strokeColor=default;" parent="edge31" vertex="1" connectable="0">
          <mxGeometry x="347" y="9250" as="geometry" />
        </mxCell>
        <mxCell id="edge14" value="" style="html=1;rounded=1;edgeStyle=orthogonalEdgeStyle;dashed=0;startArrow=diamondThinstartSize=12;endArrow=openThin;endSize=12;strokeColor=#595959;exitX=0.500;exitY=1.000;exitDx=0;exitDy=0;entryX=1.000;entryY=0.500;entryDx=0;entryDy=0;" parent="1" source="node55" target="node54" edge="1">
          <mxGeometry width="50" height="50" relative="1" as="geometry">
            <Array as="points">
              <mxPoint x="746" y="10795" />
            </Array>
          </mxGeometry>
        </mxCell>
        <mxCell id="label84" value="" style="edgeLabel;resizable=0;html=1;align=left;verticalAlign=top;strokeColor=default;" parent="edge14" vertex="1" connectable="0">
          <mxGeometry x="444" y="10790" as="geometry" />
        </mxCell>
        <mxCell id="label89" value="actionLogRepository" style="edgeLabel;resizable=0;html=1;align=left;verticalAlign=top;strokeColor=default;" parent="edge14" vertex="1" connectable="0">
          <mxGeometry x="444" y="10726" as="geometry" />
        </mxCell>
        <mxCell id="edge1" value="" style="html=1;rounded=1;edgeStyle=orthogonalEdgeStyle;dashed=1;startArrow=none;endArrow=block;endSize=12;strokeColor=#008200;exitX=0.000;exitY=0.874;exitDx=0;exitDy=0;entryX=0.000;entryY=0.500;entryDx=0;entryDy=0;" parent="1" source="node55" target="node3" edge="1">
          <mxGeometry width="50" height="50" relative="1" as="geometry">
            <Array as="points">
              <mxPoint x="-212" y="10679" />
              <mxPoint x="-212" y="11369" />
            </Array>
          </mxGeometry>
        </mxCell>
        <mxCell id="edge47" value="" style="html=1;rounded=1;edgeStyle=orthogonalEdgeStyle;dashed=0;startArrow=diamondThinstartSize=12;endArrow=openThin;endSize=12;strokeColor=#595959;exitX=0.000;exitY=0.500;exitDx=0;exitDy=0;entryX=0.500;entryY=1.000;entryDx=0;entryDy=0;" parent="1" source="node11" target="node25" edge="1">
          <mxGeometry width="50" height="50" relative="1" as="geometry">
            <Array as="points">
              <mxPoint x="-997" y="11920" />
              <mxPoint x="-997" y="10191" />
              <mxPoint x="-61" y="10191" />
            </Array>
          </mxGeometry>
        </mxCell>
        <mxCell id="label282" value="" style="edgeLabel;resizable=0;html=1;align=left;verticalAlign=top;strokeColor=default;" parent="edge47" vertex="1" connectable="0">
          <mxGeometry x="-72" y="10151" as="geometry" />
        </mxCell>
        <mxCell id="label286" value="" style="edgeLabel;resizable=0;html=1;align=left;verticalAlign=top;strokeColor=default;" parent="edge47" vertex="1" connectable="0">
          <mxGeometry x="-1012" y="11334" as="geometry" />
        </mxCell>
        <mxCell id="label287" value="authenticationService" style="edgeLabel;resizable=0;html=1;align=left;verticalAlign=top;strokeColor=default;" parent="edge47" vertex="1" connectable="0">
          <mxGeometry x="-61" y="10151" as="geometry" />
        </mxCell>
        <mxCell id="edge28" value="" style="html=1;rounded=1;edgeStyle=orthogonalEdgeStyle;dashed=0;startArrow=diamondThinstartSize=12;endArrow=openThin;endSize=12;strokeColor=#595959;exitX=1.000;exitY=0.018;exitDx=0;exitDy=0;entryX=0.000;entryY=0.500;entryDx=0;entryDy=0;" parent="1" source="node11" target="node6" edge="1">
          <mxGeometry width="50" height="50" relative="1" as="geometry">
            <Array as="points" />
          </mxGeometry>
        </mxCell>
        <mxCell id="label168" value="" style="edgeLabel;resizable=0;html=1;align=left;verticalAlign=top;strokeColor=default;" parent="edge28" vertex="1" connectable="0">
          <mxGeometry x="-193" y="11596" as="geometry" />
        </mxCell>
        <mxCell id="label173" value="getUserDetailsService" style="edgeLabel;resizable=0;html=1;align=left;verticalAlign=top;strokeColor=default;" parent="edge28" vertex="1" connectable="0">
          <mxGeometry x="-320" y="11623" as="geometry" />
        </mxCell>
        <mxCell id="edge12" value="" style="html=1;rounded=1;edgeStyle=orthogonalEdgeStyle;dashed=0;startArrow=diamondThinstartSize=12;endArrow=openThin;endSize=12;strokeColor=#595959;exitX=0.000;exitY=0.523;exitDx=0;exitDy=0;entryX=0.000;entryY=0.620;entryDx=0;entryDy=0;" parent="1" source="node11" target="node30" edge="1">
          <mxGeometry width="50" height="50" relative="1" as="geometry">
            <Array as="points">
              <mxPoint x="-1012" y="11935" />
              <mxPoint x="-1012" y="10306" />
            </Array>
          </mxGeometry>
        </mxCell>
        <mxCell id="label72" value="" style="edgeLabel;resizable=0;html=1;align=left;verticalAlign=top;strokeColor=default;" parent="edge12" vertex="1" connectable="0">
          <mxGeometry x="-215" y="10290" as="geometry" />
        </mxCell>
        <mxCell id="label77" value="scheduledOperationsService" style="edgeLabel;resizable=0;html=1;align=left;verticalAlign=top;strokeColor=default;" parent="edge12" vertex="1" connectable="0">
          <mxGeometry x="-281" y="10377" as="geometry" />
        </mxCell>
        <mxCell id="edge36" value="" style="html=1;rounded=1;edgeStyle=orthogonalEdgeStyle;dashed=0;startArrow=diamondThinstartSize=12;endArrow=openThin;endSize=12;strokeColor=#595959;exitX=0.541;exitY=0.000;exitDx=0;exitDy=0;entryX=0.000;entryY=0.633;entryDx=0;entryDy=0;" parent="1" source="node11" target="node50" edge="1">
          <mxGeometry width="50" height="50" relative="1" as="geometry">
            <Array as="points">
              <mxPoint x="-567" y="11514" />
            </Array>
          </mxGeometry>
        </mxCell>
        <mxCell id="label220" value="" style="edgeLabel;resizable=0;html=1;align=left;verticalAlign=top;strokeColor=default;" parent="edge36" vertex="1" connectable="0">
          <mxGeometry x="-578" y="11590" as="geometry" />
        </mxCell>
        <mxCell id="label221" value="updateUserDetailsService" style="edgeLabel;resizable=0;html=1;align=left;verticalAlign=top;strokeColor=default;" parent="edge36" vertex="1" connectable="0">
          <mxGeometry x="440" y="11578" as="geometry" />
        </mxCell>
        <mxCell id="edge24" value="" style="html=1;rounded=1;edgeStyle=orthogonalEdgeStyle;dashed=0;startArrow=diamondThinstartSize=12;endArrow=openThin;endSize=12;strokeColor=#595959;exitX=0.480;exitY=0.000;exitDx=0;exitDy=0;entryX=0.500;entryY=1.000;entryDx=0;entryDy=0;" parent="1" source="node11" target="node3" edge="1">
          <mxGeometry width="50" height="50" relative="1" as="geometry">
            <Array as="points">
              <mxPoint x="-612" y="11469" />
              <mxPoint x="62" y="11469" />
            </Array>
          </mxGeometry>
        </mxCell>
        <mxCell id="label149" value="userActionService" style="edgeLabel;resizable=0;html=1;align=left;verticalAlign=top;strokeColor=default;" parent="edge24" vertex="1" connectable="0">
          <mxGeometry x="62" y="11431" as="geometry" />
        </mxCell>
        <mxCell id="edge19" value="" style="html=1;rounded=1;edgeStyle=orthogonalEdgeStyle;dashed=0;startArrow=diamondThinstartSize=12;endArrow=openThin;endSize=12;strokeColor=#595959;exitX=0.520;exitY=0.000;exitDx=0;exitDy=0;entryX=1.000;entryY=0.959;entryDx=0;entryDy=0;" parent="1" source="node11" target="node34" edge="1">
          <mxGeometry width="50" height="50" relative="1" as="geometry">
            <Array as="points">
              <mxPoint x="-582" y="11484" />
              <mxPoint x="330" y="11484" />
              <mxPoint x="330" y="11162" />
            </Array>
          </mxGeometry>
        </mxCell>
        <mxCell id="label119" value="userRestrictionsService" style="edgeLabel;resizable=0;html=1;align=left;verticalAlign=top;strokeColor=default;" parent="edge19" vertex="1" connectable="0">
          <mxGeometry x="241" y="11085" as="geometry" />
        </mxCell>
        <mxCell id="edge8" value="" style="html=1;rounded=1;edgeStyle=orthogonalEdgeStyle;dashed=1;startArrow=none;endArrow=block;endSize=12;strokeColor=#008200;exitX=0.500;exitY=0.000;exitDx=0;exitDy=0;entryX=0.500;entryY=1.000;entryDx=0;entryDy=0;" parent="1" source="node34" target="node14" edge="1">
          <mxGeometry width="50" height="50" relative="1" as="geometry">
            <Array as="points" />
          </mxGeometry>
        </mxCell>
        <mxCell id="edge3" value="" style="html=1;rounded=1;edgeStyle=orthogonalEdgeStyle;dashed=0;startArrow=none;endArrow=block;endSize=12;strokeColor=#008200;exitX=0.108;exitY=1.001;exitDx=0;exitDy=0;entryX=0.000;entryY=0.500;entryDx=0;entryDy=0;" parent="1" source="node43" target="node14" edge="1">
          <mxGeometry width="50" height="50" relative="1" as="geometry">
            <Array as="points">
              <mxPoint x="-172" y="12270" />
              <mxPoint x="-1027" y="12270" />
              <mxPoint x="-1027" y="10975" />
            </Array>
          </mxGeometry>
        </mxCell>
        <mxCell id="edge20" value="" style="html=1;rounded=1;edgeStyle=orthogonalEdgeStyle;dashed=0;startArrow=diamondThinstartSize=12;endArrow=openThin;endSize=12;strokeColor=#595959;exitX=0.500;exitY=0.000;exitDx=0;exitDy=0;entryX=0.348;entryY=1.000;entryDx=0;entryDy=0;" parent="1" source="node10" target="node60" edge="1">
          <mxGeometry width="50" height="50" relative="1" as="geometry">
            <Array as="points">
              <mxPoint x="70" y="11989" />
              <mxPoint x="55" y="11989" />
              <mxPoint x="55" y="11696" />
              <mxPoint x="497" y="11696" />
            </Array>
          </mxGeometry>
        </mxCell>
        <mxCell id="label125" value="userRepository" style="edgeLabel;resizable=0;html=1;align=left;verticalAlign=top;strokeColor=default;" parent="edge20" vertex="1" connectable="0">
          <mxGeometry x="497" y="11361" as="geometry" />
        </mxCell>
        <mxCell id="edge2" value="" style="html=1;rounded=1;edgeStyle=orthogonalEdgeStyle;dashed=1;startArrow=none;endArrow=block;endSize=12;strokeColor=#008200;exitX=0.500;exitY=1.000;exitDx=0;exitDy=0;entryX=1.000;entryY=0.635;entryDx=0;entryDy=0;" parent="1" source="node10" target="node34" edge="1">
          <mxGeometry width="50" height="50" relative="1" as="geometry">
            <Array as="points">
              <mxPoint x="70" y="12351" />
              <mxPoint x="1504" y="12351" />
              <mxPoint x="1504" y="11126" />
            </Array>
          </mxGeometry>
        </mxCell>
        <mxCell id="bVs24aH8dOXHTZS6t8n3-1" value="" style="html=1;rounded=1;edgeStyle=orthogonalEdgeStyle;dashed=1;startArrow=none;endArrow=block;endSize=12;strokeColor=#008200;exitX=0.500;exitY=0.000;exitDx=0;exitDy=0;entryX=0.500;entryY=1.000;entryDx=0;entryDy=0;" edge="1" parent="1" source="node11" target="node34">
          <mxGeometry width="50" height="50" relative="1" as="geometry">
            <Array as="points" />
            <mxPoint x="-584" y="11580" as="sourcePoint" />
            <mxPoint x="-602" y="10960" as="targetPoint" />
          </mxGeometry>
        </mxCell>
        <mxCell id="node34" value="&lt;p style=&quot;margin:0px;margin-top:4px;text-align:center;&quot;&gt;&lt;i&gt;&amp;lt;&amp;lt;interface&amp;gt;&amp;gt;&lt;/i&gt;&lt;br/&gt;&lt;b&gt;UserRestrictionsService&lt;/b&gt;&lt;/p&gt;&lt;hr size=&quot;1&quot;/&gt;&lt;p style=&quot;margin:0 0 0 4px;line-height:1.6;&quot;&gt;+ removeUserBan(Integer): void&lt;br/&gt;+ banUser(Integer, Integer): void&lt;br/&gt;+ getUserAccountStatus(Integer): GetUserAccountStatusResponse&lt;/p&gt;" style="verticalAlign=top;align=left;overflow=fill;fontSize=14;fontFamily=Helvetica;html=1;rounded=0;shadow=0;comic=0;labelBackgroundColor=none;strokeWidth=1;" parent="1" vertex="1">
          <mxGeometry x="-730" y="11040" width="448" height="139" as="geometry" />
        </mxCell>
      </root>
    </mxGraphModel>
  </diagram>
</mxfile>
